ISO-10303-21;
HEADER;
/* Generated by software containing ST-Developer
 * from STEP Tools, Inc. (www.steptools.com) 
 */

FILE_DESCRIPTION(
/* description */ (''),
/* implementation_level */ '2;1');

FILE_NAME(
/* name */ 'battery holder.step',
/* time_stamp */ '2026-04-13T09:33:46+02:00',
/* author */ (''),
/* organization */ (''),
/* preprocessor_version */ 'ST-DEVELOPER v20.1',
/* originating_system */ 'Autodesk Translation Framework v14.24.0.0',
/* authorisation */ '');

FILE_SCHEMA (('AUTOMOTIVE_DESIGN { 1 0 10303 214 3 1 1 }'));
ENDSEC;

DATA;
#10=MECHANICAL_DESIGN_GEOMETRIC_PRESENTATION_REPRESENTATION('',(#13),#815);
#11=SHAPE_REPRESENTATION_RELATIONSHIP('SRR','None',#822,#12);
#12=ADVANCED_BREP_SHAPE_REPRESENTATION('',(#14),#814);
#13=STYLED_ITEM('',(#831),#14);
#14=MANIFOLD_SOLID_BREP('Body4',#503);
#15=CYLINDRICAL_SURFACE('',#534,1.);
#16=CYLINDRICAL_SURFACE('',#536,1.);
#17=CYLINDRICAL_SURFACE('',#538,0.999999783933161);
#18=CYLINDRICAL_SURFACE('',#540,1.00000004470349);
#19=CIRCLE('',#525,1.00000004470349);
#20=CIRCLE('',#526,0.999999783933161);
#21=CIRCLE('',#527,1.);
#22=CIRCLE('',#528,1.);
#23=CIRCLE('',#535,1.);
#24=CIRCLE('',#537,1.);
#25=CIRCLE('',#539,0.999999783933161);
#26=CIRCLE('',#541,1.00000004470349);
#27=FACE_BOUND('',#71,.T.);
#28=FACE_BOUND('',#72,.T.);
#29=FACE_BOUND('',#73,.T.);
#30=FACE_BOUND('',#74,.T.);
#31=FACE_BOUND('',#75,.T.);
#32=FACE_BOUND('',#89,.T.);
#33=FACE_BOUND('',#90,.T.);
#34=FACE_BOUND('',#91,.T.);
#35=FACE_BOUND('',#92,.T.);
#36=FACE_BOUND('',#93,.T.);
#37=FACE_BOUND('',#94,.T.);
#38=FACE_OUTER_BOUND('',#63,.T.);
#39=FACE_OUTER_BOUND('',#64,.T.);
#40=FACE_OUTER_BOUND('',#65,.T.);
#41=FACE_OUTER_BOUND('',#66,.T.);
#42=FACE_OUTER_BOUND('',#67,.T.);
#43=FACE_OUTER_BOUND('',#68,.T.);
#44=FACE_OUTER_BOUND('',#69,.T.);
#45=FACE_OUTER_BOUND('',#70,.T.);
#46=FACE_OUTER_BOUND('',#76,.T.);
#47=FACE_OUTER_BOUND('',#77,.T.);
#48=FACE_OUTER_BOUND('',#78,.T.);
#49=FACE_OUTER_BOUND('',#79,.T.);
#50=FACE_OUTER_BOUND('',#80,.T.);
#51=FACE_OUTER_BOUND('',#81,.T.);
#52=FACE_OUTER_BOUND('',#82,.T.);
#53=FACE_OUTER_BOUND('',#83,.T.);
#54=FACE_OUTER_BOUND('',#84,.T.);
#55=FACE_OUTER_BOUND('',#85,.T.);
#56=FACE_OUTER_BOUND('',#86,.T.);
#57=FACE_OUTER_BOUND('',#87,.T.);
#58=FACE_OUTER_BOUND('',#88,.T.);
#59=FACE_OUTER_BOUND('',#95,.T.);
#60=FACE_OUTER_BOUND('',#96,.T.);
#61=FACE_OUTER_BOUND('',#97,.T.);
#62=FACE_OUTER_BOUND('',#98,.T.);
#63=EDGE_LOOP('',(#325,#326,#327,#328,#329,#330,#331,#332));
#64=EDGE_LOOP('',(#333,#334,#335,#336));
#65=EDGE_LOOP('',(#337,#338,#339,#340));
#66=EDGE_LOOP('',(#341,#342,#343,#344));
#67=EDGE_LOOP('',(#345,#346,#347,#348,#349,#350));
#68=EDGE_LOOP('',(#351,#352,#353,#354));
#69=EDGE_LOOP('',(#355,#356,#357,#358));
#70=EDGE_LOOP('',(#359,#360,#361,#362));
#71=EDGE_LOOP('',(#363,#364,#365,#366));
#72=EDGE_LOOP('',(#367));
#73=EDGE_LOOP('',(#368));
#74=EDGE_LOOP('',(#369));
#75=EDGE_LOOP('',(#370));
#76=EDGE_LOOP('',(#371,#372,#373,#374));
#77=EDGE_LOOP('',(#375,#376,#377,#378));
#78=EDGE_LOOP('',(#379,#380,#381,#382));
#79=EDGE_LOOP('',(#383,#384,#385,#386));
#80=EDGE_LOOP('',(#387,#388,#389,#390,#391,#392));
#81=EDGE_LOOP('',(#393,#394,#395,#396));
#82=EDGE_LOOP('',(#397,#398,#399,#400));
#83=EDGE_LOOP('',(#401,#402,#403,#404));
#84=EDGE_LOOP('',(#405,#406,#407,#408));
#85=EDGE_LOOP('',(#409,#410,#411,#412));
#86=EDGE_LOOP('',(#413,#414,#415,#416));
#87=EDGE_LOOP('',(#417,#418,#419,#420));
#88=EDGE_LOOP('',(#421,#422,#423,#424,#425,#426,#427,#428));
#89=EDGE_LOOP('',(#429));
#90=EDGE_LOOP('',(#430));
#91=EDGE_LOOP('',(#431));
#92=EDGE_LOOP('',(#432));
#93=EDGE_LOOP('',(#433,#434,#435,#436));
#94=EDGE_LOOP('',(#437,#438,#439,#440));
#95=EDGE_LOOP('',(#441,#442,#443,#444));
#96=EDGE_LOOP('',(#445,#446,#447,#448));
#97=EDGE_LOOP('',(#449,#450,#451,#452));
#98=EDGE_LOOP('',(#453,#454,#455,#456));
#99=LINE('',#680,#157);
#100=LINE('',#682,#158);
#101=LINE('',#684,#159);
#102=LINE('',#686,#160);
#103=LINE('',#688,#161);
#104=LINE('',#690,#162);
#105=LINE('',#692,#163);
#106=LINE('',#693,#164);
#107=LINE('',#697,#165);
#108=LINE('',#699,#166);
#109=LINE('',#701,#167);
#110=LINE('',#702,#168);
#111=LINE('',#706,#169);
#112=LINE('',#707,#170);
#113=LINE('',#708,#171);
#114=LINE('',#712,#172);
#115=LINE('',#713,#173);
#116=LINE('',#714,#174);
#117=LINE('',#717,#175);
#118=LINE('',#719,#176);
#119=LINE('',#721,#177);
#120=LINE('',#722,#178);
#121=LINE('',#725,#179);
#122=LINE('',#726,#180);
#123=LINE('',#729,#181);
#124=LINE('',#730,#182);
#125=LINE('',#733,#183);
#126=LINE('',#734,#184);
#127=LINE('',#737,#185);
#128=LINE('',#739,#186);
#129=LINE('',#741,#187);
#130=LINE('',#742,#188);
#131=LINE('',#753,#189);
#132=LINE('',#754,#190);
#133=LINE('',#757,#191);
#134=LINE('',#759,#192);
#135=LINE('',#760,#193);
#136=LINE('',#763,#194);
#137=LINE('',#764,#195);
#138=LINE('',#767,#196);
#139=LINE('',#768,#197);
#140=LINE('',#770,#198);
#141=LINE('',#773,#199);
#142=LINE('',#777,#200);
#143=LINE('',#781,#201);
#144=LINE('',#785,#202);
#145=LINE('',#790,#203);
#146=LINE('',#791,#204);
#147=LINE('',#792,#205);
#148=LINE('',#795,#206);
#149=LINE('',#796,#207);
#150=LINE('',#798,#208);
#151=LINE('',#800,#209);
#152=LINE('',#802,#210);
#153=LINE('',#804,#211);
#154=LINE('',#805,#212);
#155=LINE('',#807,#213);
#156=LINE('',#809,#214);
#157=VECTOR('',#554,10.);
#158=VECTOR('',#555,10.);
#159=VECTOR('',#556,10.);
#160=VECTOR('',#557,10.);
#161=VECTOR('',#558,10.);
#162=VECTOR('',#559,10.);
#163=VECTOR('',#560,10.);
#164=VECTOR('',#561,10.);
#165=VECTOR('',#564,10.);
#166=VECTOR('',#565,10.);
#167=VECTOR('',#566,10.);
#168=VECTOR('',#567,10.);
#169=VECTOR('',#570,10.);
#170=VECTOR('',#571,10.);
#171=VECTOR('',#572,10.);
#172=VECTOR('',#575,10.);
#173=VECTOR('',#576,10.);
#174=VECTOR('',#577,10.);
#175=VECTOR('',#580,10.);
#176=VECTOR('',#581,10.);
#177=VECTOR('',#582,10.);
#178=VECTOR('',#583,10.);
#179=VECTOR('',#586,10.);
#180=VECTOR('',#587,10.);
#181=VECTOR('',#590,10.);
#182=VECTOR('',#591,10.);
#183=VECTOR('',#594,10.);
#184=VECTOR('',#595,10.);
#185=VECTOR('',#596,10.);
#186=VECTOR('',#597,10.);
#187=VECTOR('',#598,10.);
#188=VECTOR('',#599,10.);
#189=VECTOR('',#610,10.);
#190=VECTOR('',#611,10.);
#191=VECTOR('',#614,10.);
#192=VECTOR('',#615,10.);
#193=VECTOR('',#616,10.);
#194=VECTOR('',#619,10.);
#195=VECTOR('',#620,10.);
#196=VECTOR('',#623,10.);
#197=VECTOR('',#624,10.);
#198=VECTOR('',#627,10.);
#199=VECTOR('',#630,1.);
#200=VECTOR('',#635,1.);
#201=VECTOR('',#640,0.999999783933161);
#202=VECTOR('',#645,1.00000004470349);
#203=VECTOR('',#650,10.);
#204=VECTOR('',#651,10.);
#205=VECTOR('',#652,10.);
#206=VECTOR('',#655,10.);
#207=VECTOR('',#656,10.);
#208=VECTOR('',#659,10.);
#209=VECTOR('',#662,10.);
#210=VECTOR('',#663,10.);
#211=VECTOR('',#664,10.);
#212=VECTOR('',#665,10.);
#213=VECTOR('',#668,10.);
#214=VECTOR('',#671,10.);
#215=VERTEX_POINT('',#678);
#216=VERTEX_POINT('',#679);
#217=VERTEX_POINT('',#681);
#218=VERTEX_POINT('',#683);
#219=VERTEX_POINT('',#685);
#220=VERTEX_POINT('',#687);
#221=VERTEX_POINT('',#689);
#222=VERTEX_POINT('',#691);
#223=VERTEX_POINT('',#695);
#224=VERTEX_POINT('',#696);
#225=VERTEX_POINT('',#698);
#226=VERTEX_POINT('',#700);
#227=VERTEX_POINT('',#704);
#228=VERTEX_POINT('',#705);
#229=VERTEX_POINT('',#710);
#230=VERTEX_POINT('',#711);
#231=VERTEX_POINT('',#716);
#232=VERTEX_POINT('',#718);
#233=VERTEX_POINT('',#720);
#234=VERTEX_POINT('',#724);
#235=VERTEX_POINT('',#728);
#236=VERTEX_POINT('',#732);
#237=VERTEX_POINT('',#735);
#238=VERTEX_POINT('',#736);
#239=VERTEX_POINT('',#738);
#240=VERTEX_POINT('',#740);
#241=VERTEX_POINT('',#743);
#242=VERTEX_POINT('',#745);
#243=VERTEX_POINT('',#747);
#244=VERTEX_POINT('',#749);
#245=VERTEX_POINT('',#752);
#246=VERTEX_POINT('',#756);
#247=VERTEX_POINT('',#758);
#248=VERTEX_POINT('',#762);
#249=VERTEX_POINT('',#766);
#250=VERTEX_POINT('',#772);
#251=VERTEX_POINT('',#776);
#252=VERTEX_POINT('',#780);
#253=VERTEX_POINT('',#784);
#254=VERTEX_POINT('',#788);
#255=VERTEX_POINT('',#789);
#256=VERTEX_POINT('',#794);
#257=VERTEX_POINT('',#801);
#258=VERTEX_POINT('',#803);
#259=EDGE_CURVE('',#215,#216,#99,.T.);
#260=EDGE_CURVE('',#216,#217,#100,.T.);
#261=EDGE_CURVE('',#217,#218,#101,.T.);
#262=EDGE_CURVE('',#218,#219,#102,.T.);
#263=EDGE_CURVE('',#219,#220,#103,.T.);
#264=EDGE_CURVE('',#220,#221,#104,.T.);
#265=EDGE_CURVE('',#221,#222,#105,.T.);
#266=EDGE_CURVE('',#222,#215,#106,.T.);
#267=EDGE_CURVE('',#223,#224,#107,.T.);
#268=EDGE_CURVE('',#224,#225,#108,.T.);
#269=EDGE_CURVE('',#225,#226,#109,.T.);
#270=EDGE_CURVE('',#226,#223,#110,.T.);
#271=EDGE_CURVE('',#227,#228,#111,.T.);
#272=EDGE_CURVE('',#216,#227,#112,.T.);
#273=EDGE_CURVE('',#228,#215,#113,.T.);
#274=EDGE_CURVE('',#229,#230,#114,.T.);
#275=EDGE_CURVE('',#220,#229,#115,.T.);
#276=EDGE_CURVE('',#230,#219,#116,.T.);
#277=EDGE_CURVE('',#231,#228,#117,.T.);
#278=EDGE_CURVE('',#222,#232,#118,.T.);
#279=EDGE_CURVE('',#232,#233,#119,.T.);
#280=EDGE_CURVE('',#231,#233,#120,.T.);
#281=EDGE_CURVE('',#218,#234,#121,.T.);
#282=EDGE_CURVE('',#230,#234,#122,.T.);
#283=EDGE_CURVE('',#232,#235,#123,.T.);
#284=EDGE_CURVE('',#235,#221,#124,.T.);
#285=EDGE_CURVE('',#236,#235,#125,.T.);
#286=EDGE_CURVE('',#233,#236,#126,.T.);
#287=EDGE_CURVE('',#237,#238,#127,.T.);
#288=EDGE_CURVE('',#239,#237,#128,.T.);
#289=EDGE_CURVE('',#240,#239,#129,.T.);
#290=EDGE_CURVE('',#238,#240,#130,.T.);
#291=EDGE_CURVE('',#241,#241,#19,.T.);
#292=EDGE_CURVE('',#242,#242,#20,.T.);
#293=EDGE_CURVE('',#243,#243,#21,.T.);
#294=EDGE_CURVE('',#244,#244,#22,.T.);
#295=EDGE_CURVE('',#234,#245,#131,.T.);
#296=EDGE_CURVE('',#245,#217,#132,.T.);
#297=EDGE_CURVE('',#246,#237,#133,.T.);
#298=EDGE_CURVE('',#247,#246,#134,.T.);
#299=EDGE_CURVE('',#247,#239,#135,.T.);
#300=EDGE_CURVE('',#248,#238,#136,.T.);
#301=EDGE_CURVE('',#246,#248,#137,.T.);
#302=EDGE_CURVE('',#236,#249,#138,.T.);
#303=EDGE_CURVE('',#249,#231,#139,.T.);
#304=EDGE_CURVE('',#229,#249,#140,.T.);
#305=EDGE_CURVE('',#244,#250,#141,.T.);
#306=EDGE_CURVE('',#250,#250,#23,.T.);
#307=EDGE_CURVE('',#243,#251,#142,.T.);
#308=EDGE_CURVE('',#251,#251,#24,.T.);
#309=EDGE_CURVE('',#242,#252,#143,.T.);
#310=EDGE_CURVE('',#252,#252,#25,.T.);
#311=EDGE_CURVE('',#241,#253,#144,.T.);
#312=EDGE_CURVE('',#253,#253,#26,.T.);
#313=EDGE_CURVE('',#254,#255,#145,.T.);
#314=EDGE_CURVE('',#255,#224,#146,.T.);
#315=EDGE_CURVE('',#254,#223,#147,.T.);
#316=EDGE_CURVE('',#256,#247,#148,.T.);
#317=EDGE_CURVE('',#256,#240,#149,.T.);
#318=EDGE_CURVE('',#248,#256,#150,.T.);
#319=EDGE_CURVE('',#227,#245,#151,.T.);
#320=EDGE_CURVE('',#254,#257,#152,.T.);
#321=EDGE_CURVE('',#257,#258,#153,.T.);
#322=EDGE_CURVE('',#258,#255,#154,.T.);
#323=EDGE_CURVE('',#257,#226,#155,.T.);
#324=EDGE_CURVE('',#258,#225,#156,.T.);
#325=ORIENTED_EDGE('',*,*,#259,.T.);
#326=ORIENTED_EDGE('',*,*,#260,.T.);
#327=ORIENTED_EDGE('',*,*,#261,.T.);
#328=ORIENTED_EDGE('',*,*,#262,.T.);
#329=ORIENTED_EDGE('',*,*,#263,.T.);
#330=ORIENTED_EDGE('',*,*,#264,.T.);
#331=ORIENTED_EDGE('',*,*,#265,.T.);
#332=ORIENTED_EDGE('',*,*,#266,.T.);
#333=ORIENTED_EDGE('',*,*,#267,.T.);
#334=ORIENTED_EDGE('',*,*,#268,.T.);
#335=ORIENTED_EDGE('',*,*,#269,.T.);
#336=ORIENTED_EDGE('',*,*,#270,.T.);
#337=ORIENTED_EDGE('',*,*,#271,.F.);
#338=ORIENTED_EDGE('',*,*,#272,.F.);
#339=ORIENTED_EDGE('',*,*,#259,.F.);
#340=ORIENTED_EDGE('',*,*,#273,.F.);
#341=ORIENTED_EDGE('',*,*,#274,.F.);
#342=ORIENTED_EDGE('',*,*,#275,.F.);
#343=ORIENTED_EDGE('',*,*,#263,.F.);
#344=ORIENTED_EDGE('',*,*,#276,.F.);
#345=ORIENTED_EDGE('',*,*,#277,.T.);
#346=ORIENTED_EDGE('',*,*,#273,.T.);
#347=ORIENTED_EDGE('',*,*,#266,.F.);
#348=ORIENTED_EDGE('',*,*,#278,.T.);
#349=ORIENTED_EDGE('',*,*,#279,.T.);
#350=ORIENTED_EDGE('',*,*,#280,.F.);
#351=ORIENTED_EDGE('',*,*,#276,.T.);
#352=ORIENTED_EDGE('',*,*,#262,.F.);
#353=ORIENTED_EDGE('',*,*,#281,.T.);
#354=ORIENTED_EDGE('',*,*,#282,.F.);
#355=ORIENTED_EDGE('',*,*,#283,.F.);
#356=ORIENTED_EDGE('',*,*,#278,.F.);
#357=ORIENTED_EDGE('',*,*,#265,.F.);
#358=ORIENTED_EDGE('',*,*,#284,.F.);
#359=ORIENTED_EDGE('',*,*,#283,.T.);
#360=ORIENTED_EDGE('',*,*,#285,.F.);
#361=ORIENTED_EDGE('',*,*,#286,.F.);
#362=ORIENTED_EDGE('',*,*,#279,.F.);
#363=ORIENTED_EDGE('',*,*,#287,.F.);
#364=ORIENTED_EDGE('',*,*,#288,.F.);
#365=ORIENTED_EDGE('',*,*,#289,.F.);
#366=ORIENTED_EDGE('',*,*,#290,.F.);
#367=ORIENTED_EDGE('',*,*,#291,.F.);
#368=ORIENTED_EDGE('',*,*,#292,.F.);
#369=ORIENTED_EDGE('',*,*,#293,.F.);
#370=ORIENTED_EDGE('',*,*,#294,.F.);
#371=ORIENTED_EDGE('',*,*,#295,.F.);
#372=ORIENTED_EDGE('',*,*,#281,.F.);
#373=ORIENTED_EDGE('',*,*,#261,.F.);
#374=ORIENTED_EDGE('',*,*,#296,.F.);
#375=ORIENTED_EDGE('',*,*,#288,.T.);
#376=ORIENTED_EDGE('',*,*,#297,.F.);
#377=ORIENTED_EDGE('',*,*,#298,.F.);
#378=ORIENTED_EDGE('',*,*,#299,.T.);
#379=ORIENTED_EDGE('',*,*,#287,.T.);
#380=ORIENTED_EDGE('',*,*,#300,.F.);
#381=ORIENTED_EDGE('',*,*,#301,.F.);
#382=ORIENTED_EDGE('',*,*,#297,.T.);
#383=ORIENTED_EDGE('',*,*,#286,.T.);
#384=ORIENTED_EDGE('',*,*,#302,.T.);
#385=ORIENTED_EDGE('',*,*,#303,.T.);
#386=ORIENTED_EDGE('',*,*,#280,.T.);
#387=ORIENTED_EDGE('',*,*,#304,.T.);
#388=ORIENTED_EDGE('',*,*,#302,.F.);
#389=ORIENTED_EDGE('',*,*,#285,.T.);
#390=ORIENTED_EDGE('',*,*,#284,.T.);
#391=ORIENTED_EDGE('',*,*,#264,.F.);
#392=ORIENTED_EDGE('',*,*,#275,.T.);
#393=ORIENTED_EDGE('',*,*,#294,.T.);
#394=ORIENTED_EDGE('',*,*,#305,.T.);
#395=ORIENTED_EDGE('',*,*,#306,.F.);
#396=ORIENTED_EDGE('',*,*,#305,.F.);
#397=ORIENTED_EDGE('',*,*,#293,.T.);
#398=ORIENTED_EDGE('',*,*,#307,.T.);
#399=ORIENTED_EDGE('',*,*,#308,.F.);
#400=ORIENTED_EDGE('',*,*,#307,.F.);
#401=ORIENTED_EDGE('',*,*,#292,.T.);
#402=ORIENTED_EDGE('',*,*,#309,.T.);
#403=ORIENTED_EDGE('',*,*,#310,.F.);
#404=ORIENTED_EDGE('',*,*,#309,.F.);
#405=ORIENTED_EDGE('',*,*,#291,.T.);
#406=ORIENTED_EDGE('',*,*,#311,.T.);
#407=ORIENTED_EDGE('',*,*,#312,.F.);
#408=ORIENTED_EDGE('',*,*,#311,.F.);
#409=ORIENTED_EDGE('',*,*,#313,.T.);
#410=ORIENTED_EDGE('',*,*,#314,.T.);
#411=ORIENTED_EDGE('',*,*,#267,.F.);
#412=ORIENTED_EDGE('',*,*,#315,.F.);
#413=ORIENTED_EDGE('',*,*,#289,.T.);
#414=ORIENTED_EDGE('',*,*,#299,.F.);
#415=ORIENTED_EDGE('',*,*,#316,.F.);
#416=ORIENTED_EDGE('',*,*,#317,.T.);
#417=ORIENTED_EDGE('',*,*,#290,.T.);
#418=ORIENTED_EDGE('',*,*,#317,.F.);
#419=ORIENTED_EDGE('',*,*,#318,.F.);
#420=ORIENTED_EDGE('',*,*,#300,.T.);
#421=ORIENTED_EDGE('',*,*,#295,.T.);
#422=ORIENTED_EDGE('',*,*,#319,.F.);
#423=ORIENTED_EDGE('',*,*,#271,.T.);
#424=ORIENTED_EDGE('',*,*,#277,.F.);
#425=ORIENTED_EDGE('',*,*,#303,.F.);
#426=ORIENTED_EDGE('',*,*,#304,.F.);
#427=ORIENTED_EDGE('',*,*,#274,.T.);
#428=ORIENTED_EDGE('',*,*,#282,.T.);
#429=ORIENTED_EDGE('',*,*,#306,.T.);
#430=ORIENTED_EDGE('',*,*,#308,.T.);
#431=ORIENTED_EDGE('',*,*,#310,.T.);
#432=ORIENTED_EDGE('',*,*,#312,.T.);
#433=ORIENTED_EDGE('',*,*,#316,.T.);
#434=ORIENTED_EDGE('',*,*,#298,.T.);
#435=ORIENTED_EDGE('',*,*,#301,.T.);
#436=ORIENTED_EDGE('',*,*,#318,.T.);
#437=ORIENTED_EDGE('',*,*,#313,.F.);
#438=ORIENTED_EDGE('',*,*,#320,.T.);
#439=ORIENTED_EDGE('',*,*,#321,.T.);
#440=ORIENTED_EDGE('',*,*,#322,.T.);
#441=ORIENTED_EDGE('',*,*,#320,.F.);
#442=ORIENTED_EDGE('',*,*,#315,.T.);
#443=ORIENTED_EDGE('',*,*,#270,.F.);
#444=ORIENTED_EDGE('',*,*,#323,.F.);
#445=ORIENTED_EDGE('',*,*,#321,.F.);
#446=ORIENTED_EDGE('',*,*,#323,.T.);
#447=ORIENTED_EDGE('',*,*,#269,.F.);
#448=ORIENTED_EDGE('',*,*,#324,.F.);
#449=ORIENTED_EDGE('',*,*,#322,.F.);
#450=ORIENTED_EDGE('',*,*,#324,.T.);
#451=ORIENTED_EDGE('',*,*,#268,.F.);
#452=ORIENTED_EDGE('',*,*,#314,.F.);
#453=ORIENTED_EDGE('',*,*,#272,.T.);
#454=ORIENTED_EDGE('',*,*,#319,.T.);
#455=ORIENTED_EDGE('',*,*,#296,.T.);
#456=ORIENTED_EDGE('',*,*,#260,.F.);
#457=PLANE('',#517);
#458=PLANE('',#518);
#459=PLANE('',#519);
#460=PLANE('',#520);
#461=PLANE('',#521);
#462=PLANE('',#522);
#463=PLANE('',#523);
#464=PLANE('',#524);
#465=PLANE('',#529);
#466=PLANE('',#530);
#467=PLANE('',#531);
#468=PLANE('',#532);
#469=PLANE('',#533);
#470=PLANE('',#542);
#471=PLANE('',#543);
#472=PLANE('',#544);
#473=PLANE('',#545);
#474=PLANE('',#546);
#475=PLANE('',#547);
#476=PLANE('',#548);
#477=PLANE('',#549);
#478=ADVANCED_FACE('',(#38),#457,.T.);
#479=ADVANCED_FACE('',(#39),#458,.T.);
#480=ADVANCED_FACE('',(#40),#459,.F.);
#481=ADVANCED_FACE('',(#41),#460,.F.);
#482=ADVANCED_FACE('',(#42),#461,.T.);
#483=ADVANCED_FACE('',(#43),#462,.T.);
#484=ADVANCED_FACE('',(#44),#463,.F.);
#485=ADVANCED_FACE('',(#45,#27,#28,#29,#30,#31),#464,.F.);
#486=ADVANCED_FACE('',(#46),#465,.T.);
#487=ADVANCED_FACE('',(#47),#466,.F.);
#488=ADVANCED_FACE('',(#48),#467,.F.);
#489=ADVANCED_FACE('',(#49),#468,.T.);
#490=ADVANCED_FACE('',(#50),#469,.T.);
#491=ADVANCED_FACE('',(#51),#15,.F.);
#492=ADVANCED_FACE('',(#52),#16,.F.);
#493=ADVANCED_FACE('',(#53),#17,.F.);
#494=ADVANCED_FACE('',(#54),#18,.F.);
#495=ADVANCED_FACE('',(#55),#470,.T.);
#496=ADVANCED_FACE('',(#56),#471,.F.);
#497=ADVANCED_FACE('',(#57),#472,.F.);
#498=ADVANCED_FACE('',(#58,#32,#33,#34,#35,#36,#37),#473,.F.);
#499=ADVANCED_FACE('',(#59),#474,.T.);
#500=ADVANCED_FACE('',(#60),#475,.T.);
#501=ADVANCED_FACE('',(#61),#476,.T.);
#502=ADVANCED_FACE('',(#62),#477,.T.);
#503=CLOSED_SHELL('',(#478,#479,#480,#481,#482,#483,#484,#485,#486,#487,
#488,#489,#490,#491,#492,#493,#494,#495,#496,#497,#498,#499,#500,#501,#502));
#504=DERIVED_UNIT_ELEMENT(#506,1.);
#505=DERIVED_UNIT_ELEMENT(#817,-3.);
#506=(
MASS_UNIT()
NAMED_UNIT(*)
SI_UNIT(.KILO.,.GRAM.)
);
#507=DERIVED_UNIT((#504,#505));
#508=MEASURE_REPRESENTATION_ITEM('density measure',
POSITIVE_RATIO_MEASURE(7850.),#507);
#509=PROPERTY_DEFINITION_REPRESENTATION(#514,#511);
#510=PROPERTY_DEFINITION_REPRESENTATION(#515,#512);
#511=REPRESENTATION('material name',(#513),#814);
#512=REPRESENTATION('density',(#508),#814);
#513=DESCRIPTIVE_REPRESENTATION_ITEM('Steel','Steel');
#514=PROPERTY_DEFINITION('material property','material name',#824);
#515=PROPERTY_DEFINITION('material property','density of part',#824);
#516=AXIS2_PLACEMENT_3D('',#676,#550,#551);
#517=AXIS2_PLACEMENT_3D('',#677,#552,#553);
#518=AXIS2_PLACEMENT_3D('',#694,#562,#563);
#519=AXIS2_PLACEMENT_3D('',#703,#568,#569);
#520=AXIS2_PLACEMENT_3D('',#709,#573,#574);
#521=AXIS2_PLACEMENT_3D('',#715,#578,#579);
#522=AXIS2_PLACEMENT_3D('',#723,#584,#585);
#523=AXIS2_PLACEMENT_3D('',#727,#588,#589);
#524=AXIS2_PLACEMENT_3D('',#731,#592,#593);
#525=AXIS2_PLACEMENT_3D('',#744,#600,#601);
#526=AXIS2_PLACEMENT_3D('',#746,#602,#603);
#527=AXIS2_PLACEMENT_3D('',#748,#604,#605);
#528=AXIS2_PLACEMENT_3D('',#750,#606,#607);
#529=AXIS2_PLACEMENT_3D('',#751,#608,#609);
#530=AXIS2_PLACEMENT_3D('',#755,#612,#613);
#531=AXIS2_PLACEMENT_3D('',#761,#617,#618);
#532=AXIS2_PLACEMENT_3D('',#765,#621,#622);
#533=AXIS2_PLACEMENT_3D('',#769,#625,#626);
#534=AXIS2_PLACEMENT_3D('',#771,#628,#629);
#535=AXIS2_PLACEMENT_3D('',#774,#631,#632);
#536=AXIS2_PLACEMENT_3D('',#775,#633,#634);
#537=AXIS2_PLACEMENT_3D('',#778,#636,#637);
#538=AXIS2_PLACEMENT_3D('',#779,#638,#639);
#539=AXIS2_PLACEMENT_3D('',#782,#641,#642);
#540=AXIS2_PLACEMENT_3D('',#783,#643,#644);
#541=AXIS2_PLACEMENT_3D('',#786,#646,#647);
#542=AXIS2_PLACEMENT_3D('',#787,#648,#649);
#543=AXIS2_PLACEMENT_3D('',#793,#653,#654);
#544=AXIS2_PLACEMENT_3D('',#797,#657,#658);
#545=AXIS2_PLACEMENT_3D('',#799,#660,#661);
#546=AXIS2_PLACEMENT_3D('',#806,#666,#667);
#547=AXIS2_PLACEMENT_3D('',#808,#669,#670);
#548=AXIS2_PLACEMENT_3D('',#810,#672,#673);
#549=AXIS2_PLACEMENT_3D('',#811,#674,#675);
#550=DIRECTION('axis',(0.,0.,1.));
#551=DIRECTION('refdir',(1.,0.,0.));
#552=DIRECTION('center_axis',(0.,0.,1.));
#553=DIRECTION('ref_axis',(1.,0.,0.));
#554=DIRECTION('',(0.,-1.,0.));
#555=DIRECTION('',(1.,0.,0.));
#556=DIRECTION('',(0.,-1.,0.));
#557=DIRECTION('',(-1.,0.,0.));
#558=DIRECTION('',(0.,-1.,0.));
#559=DIRECTION('',(1.,0.,0.));
#560=DIRECTION('',(0.,1.,0.));
#561=DIRECTION('',(-1.,0.,0.));
#562=DIRECTION('center_axis',(0.,0.,1.));
#563=DIRECTION('ref_axis',(1.,0.,0.));
#564=DIRECTION('',(0.,-1.,0.));
#565=DIRECTION('',(1.,0.,0.));
#566=DIRECTION('',(0.,1.,0.));
#567=DIRECTION('',(-1.,0.,0.));
#568=DIRECTION('center_axis',(1.,0.,0.));
#569=DIRECTION('ref_axis',(0.,0.,-1.));
#570=DIRECTION('',(0.,1.,0.));
#571=DIRECTION('',(0.,0.,-1.));
#572=DIRECTION('',(0.,0.,1.));
#573=DIRECTION('center_axis',(1.,0.,0.));
#574=DIRECTION('ref_axis',(0.,0.,-1.));
#575=DIRECTION('',(0.,1.,0.));
#576=DIRECTION('',(0.,0.,-1.));
#577=DIRECTION('',(0.,0.,1.));
#578=DIRECTION('center_axis',(0.,1.,0.));
#579=DIRECTION('ref_axis',(-1.,0.,0.));
#580=DIRECTION('',(1.,0.,0.));
#581=DIRECTION('',(0.,0.,-1.));
#582=DIRECTION('',(-1.,0.,0.));
#583=DIRECTION('',(0.,0.,-1.));
#584=DIRECTION('center_axis',(0.,1.,0.));
#585=DIRECTION('ref_axis',(-1.,0.,0.));
#586=DIRECTION('',(0.,0.,-1.));
#587=DIRECTION('',(1.,0.,0.));
#588=DIRECTION('center_axis',(-1.,0.,0.));
#589=DIRECTION('ref_axis',(0.,0.,1.));
#590=DIRECTION('',(0.,-1.,0.));
#591=DIRECTION('',(0.,0.,1.));
#592=DIRECTION('center_axis',(0.,0.,1.));
#593=DIRECTION('ref_axis',(1.,0.,0.));
#594=DIRECTION('',(1.,0.,0.));
#595=DIRECTION('',(0.,-1.,0.));
#596=DIRECTION('',(0.,-1.,0.));
#597=DIRECTION('',(1.,0.,0.));
#598=DIRECTION('',(0.,1.,0.));
#599=DIRECTION('',(-1.,0.,0.));
#600=DIRECTION('center_axis',(0.,0.,-1.));
#601=DIRECTION('ref_axis',(1.,0.,0.));
#602=DIRECTION('center_axis',(0.,0.,-1.));
#603=DIRECTION('ref_axis',(1.,0.,0.));
#604=DIRECTION('center_axis',(0.,0.,-1.));
#605=DIRECTION('ref_axis',(1.,0.,0.));
#606=DIRECTION('center_axis',(0.,0.,-1.));
#607=DIRECTION('ref_axis',(1.,0.,0.));
#608=DIRECTION('center_axis',(-1.,0.,0.));
#609=DIRECTION('ref_axis',(0.,0.,1.));
#610=DIRECTION('',(0.,1.,0.));
#611=DIRECTION('',(0.,0.,1.));
#612=DIRECTION('center_axis',(0.,1.,0.));
#613=DIRECTION('ref_axis',(1.,0.,0.));
#614=DIRECTION('',(0.,0.,-1.));
#615=DIRECTION('',(1.,0.,0.));
#616=DIRECTION('',(0.,0.,-1.));
#617=DIRECTION('center_axis',(1.,0.,0.));
#618=DIRECTION('ref_axis',(0.,-1.,0.));
#619=DIRECTION('',(0.,0.,-1.));
#620=DIRECTION('',(0.,-1.,0.));
#621=DIRECTION('center_axis',(-1.,0.,0.));
#622=DIRECTION('ref_axis',(0.,0.,1.));
#623=DIRECTION('',(0.,0.,1.));
#624=DIRECTION('',(0.,1.,0.));
#625=DIRECTION('center_axis',(0.,-1.,0.));
#626=DIRECTION('ref_axis',(1.,0.,0.));
#627=DIRECTION('',(-1.,0.,0.));
#628=DIRECTION('center_axis',(0.,0.,1.));
#629=DIRECTION('ref_axis',(1.,0.,0.));
#630=DIRECTION('',(0.,0.,1.));
#631=DIRECTION('center_axis',(0.,0.,-1.));
#632=DIRECTION('ref_axis',(1.,0.,0.));
#633=DIRECTION('center_axis',(0.,0.,1.));
#634=DIRECTION('ref_axis',(1.,0.,0.));
#635=DIRECTION('',(0.,0.,1.));
#636=DIRECTION('center_axis',(0.,0.,-1.));
#637=DIRECTION('ref_axis',(1.,0.,0.));
#638=DIRECTION('center_axis',(0.,0.,1.));
#639=DIRECTION('ref_axis',(1.,0.,0.));
#640=DIRECTION('',(0.,0.,1.));
#641=DIRECTION('center_axis',(0.,0.,-1.));
#642=DIRECTION('ref_axis',(1.,0.,0.));
#643=DIRECTION('center_axis',(0.,0.,1.));
#644=DIRECTION('ref_axis',(1.,0.,0.));
#645=DIRECTION('',(0.,0.,1.));
#646=DIRECTION('center_axis',(0.,0.,-1.));
#647=DIRECTION('ref_axis',(1.,0.,0.));
#648=DIRECTION('center_axis',(-1.,0.,0.));
#649=DIRECTION('ref_axis',(0.,-1.,0.));
#650=DIRECTION('',(0.,-1.,0.));
#651=DIRECTION('',(0.,0.,1.));
#652=DIRECTION('',(0.,0.,1.));
#653=DIRECTION('center_axis',(-1.,0.,0.));
#654=DIRECTION('ref_axis',(0.,1.,0.));
#655=DIRECTION('',(0.,1.,0.));
#656=DIRECTION('',(0.,0.,-1.));
#657=DIRECTION('center_axis',(0.,-1.,0.));
#658=DIRECTION('ref_axis',(-1.,0.,0.));
#659=DIRECTION('',(-1.,0.,0.));
#660=DIRECTION('center_axis',(0.,0.,-1.));
#661=DIRECTION('ref_axis',(1.,0.,0.));
#662=DIRECTION('',(1.,0.,0.));
#663=DIRECTION('',(1.,0.,0.));
#664=DIRECTION('',(0.,-1.,0.));
#665=DIRECTION('',(-1.,0.,0.));
#666=DIRECTION('center_axis',(0.,1.,0.));
#667=DIRECTION('ref_axis',(-1.,0.,0.));
#668=DIRECTION('',(0.,0.,1.));
#669=DIRECTION('center_axis',(1.,0.,0.));
#670=DIRECTION('ref_axis',(0.,1.,0.));
#671=DIRECTION('',(0.,0.,1.));
#672=DIRECTION('center_axis',(0.,-1.,0.));
#673=DIRECTION('ref_axis',(1.,0.,0.));
#674=DIRECTION('center_axis',(0.,-1.,0.));
#675=DIRECTION('ref_axis',(1.,0.,0.));
#676=CARTESIAN_POINT('',(0.,0.,0.));
#677=CARTESIAN_POINT('Origin',(60.,17.5,25.));
#678=CARTESIAN_POINT('',(25.,36.5,25.));
#679=CARTESIAN_POINT('',(25.,35.,25.));
#680=CARTESIAN_POINT('',(25.,27.,25.));
#681=CARTESIAN_POINT('',(117.5,35.,25.));
#682=CARTESIAN_POINT('',(-5.,35.,25.));
#683=CARTESIAN_POINT('',(117.5,0.,25.));
#684=CARTESIAN_POINT('',(117.5,36.5,25.));
#685=CARTESIAN_POINT('',(25.,0.,25.));
#686=CARTESIAN_POINT('',(-5.,0.,25.));
#687=CARTESIAN_POINT('',(25.,-1.5,25.));
#688=CARTESIAN_POINT('',(25.,27.,25.));
#689=CARTESIAN_POINT('',(122.5,-1.5,25.));
#690=CARTESIAN_POINT('',(125.,-1.5,25.));
#691=CARTESIAN_POINT('',(122.5,36.5,25.));
#692=CARTESIAN_POINT('',(122.5,8.,25.));
#693=CARTESIAN_POINT('',(125.,36.5,25.));
#694=CARTESIAN_POINT('Origin',(-2.5,17.5,25.));
#695=CARTESIAN_POINT('',(-5.,22.25,25.));
#696=CARTESIAN_POINT('',(-5.,12.75,25.));
#697=CARTESIAN_POINT('',(-5.,12.75,25.));
#698=CARTESIAN_POINT('',(0.,12.75,25.));
#699=CARTESIAN_POINT('',(0.,12.75,25.));
#700=CARTESIAN_POINT('',(0.,22.25,25.));
#701=CARTESIAN_POINT('',(0.,22.25,25.));
#702=CARTESIAN_POINT('',(-5.,22.25,25.));
#703=CARTESIAN_POINT('Origin',(25.,36.5,0.));
#704=CARTESIAN_POINT('',(25.,35.,0.));
#705=CARTESIAN_POINT('',(25.,36.5,0.));
#706=CARTESIAN_POINT('',(25.,17.5,0.));
#707=CARTESIAN_POINT('',(25.,35.,0.));
#708=CARTESIAN_POINT('',(25.,36.5,0.));
#709=CARTESIAN_POINT('Origin',(25.,36.5,0.));
#710=CARTESIAN_POINT('',(25.,-1.5,0.));
#711=CARTESIAN_POINT('',(25.,0.,0.));
#712=CARTESIAN_POINT('',(25.,17.5,0.));
#713=CARTESIAN_POINT('',(25.,-1.5,0.));
#714=CARTESIAN_POINT('',(25.,0.,0.));
#715=CARTESIAN_POINT('Origin',(125.,36.5,0.));
#716=CARTESIAN_POINT('',(-15.,36.5,0.));
#717=CARTESIAN_POINT('',(60.,36.5,0.));
#718=CARTESIAN_POINT('',(122.5,36.5,-3.));
#719=CARTESIAN_POINT('',(122.5,36.5,0.));
#720=CARTESIAN_POINT('',(-15.,36.5,-3.));
#721=CARTESIAN_POINT('',(92.5,36.5,-3.));
#722=CARTESIAN_POINT('',(-15.,36.5,0.));
#723=CARTESIAN_POINT('Origin',(120.,0.,0.));
#724=CARTESIAN_POINT('',(117.5,0.,0.));
#725=CARTESIAN_POINT('',(117.5,0.,0.));
#726=CARTESIAN_POINT('',(-5.,0.,0.));
#727=CARTESIAN_POINT('Origin',(122.5,-1.5,0.));
#728=CARTESIAN_POINT('',(122.5,-1.5,-3.));
#729=CARTESIAN_POINT('',(122.5,8.,-3.));
#730=CARTESIAN_POINT('',(122.5,-1.5,0.));
#731=CARTESIAN_POINT('Origin',(60.,17.5,-3.));
#732=CARTESIAN_POINT('',(-15.,-1.5,-3.));
#733=CARTESIAN_POINT('',(27.5,-1.5,-3.));
#734=CARTESIAN_POINT('',(-15.,17.5,-3.));
#735=CARTESIAN_POINT('',(112.75,30.,-3.));
#736=CARTESIAN_POINT('',(112.75,5.,-3.));
#737=CARTESIAN_POINT('',(112.75,23.75,-3.));
#738=CARTESIAN_POINT('',(5.,30.,-3.));
#739=CARTESIAN_POINT('',(32.5,30.,-3.));
#740=CARTESIAN_POINT('',(5.,5.,-3.));
#741=CARTESIAN_POINT('',(5.,11.25,-3.));
#742=CARTESIAN_POINT('',(86.375,5.,-3.));
#743=CARTESIAN_POINT('',(-10.0000001788139,5.00000004470348,-3.));
#744=CARTESIAN_POINT('Origin',(-9.00000013411045,5.00000004470348,-3.));
#745=CARTESIAN_POINT('',(-9.99999991804361,30.0000002160668,-3.));
#746=CARTESIAN_POINT('Origin',(-9.00000013411045,30.0000002160668,-3.));
#747=CARTESIAN_POINT('',(-10.0000001341105,14.0000000596046,-3.));
#748=CARTESIAN_POINT('Origin',(-9.00000013411045,14.0000000596046,-3.));
#749=CARTESIAN_POINT('',(-10.0000001341105,20.0000002160668,-3.));
#750=CARTESIAN_POINT('Origin',(-9.00000013411045,20.0000002160668,-3.));
#751=CARTESIAN_POINT('Origin',(117.5,35.,0.));
#752=CARTESIAN_POINT('',(117.5,35.,0.));
#753=CARTESIAN_POINT('',(117.5,26.25,0.));
#754=CARTESIAN_POINT('',(117.5,35.,0.));
#755=CARTESIAN_POINT('Origin',(5.,30.,0.));
#756=CARTESIAN_POINT('',(112.75,30.,0.));
#757=CARTESIAN_POINT('',(112.75,30.,0.));
#758=CARTESIAN_POINT('',(5.,30.,0.));
#759=CARTESIAN_POINT('',(32.5,30.,0.));
#760=CARTESIAN_POINT('',(5.,30.,0.));
#761=CARTESIAN_POINT('Origin',(112.75,30.,0.));
#762=CARTESIAN_POINT('',(112.75,5.,0.));
#763=CARTESIAN_POINT('',(112.75,5.,0.));
#764=CARTESIAN_POINT('',(112.75,23.75,0.));
#765=CARTESIAN_POINT('Origin',(-15.,17.5,-2.5));
#766=CARTESIAN_POINT('',(-15.,-1.5,0.));
#767=CARTESIAN_POINT('',(-15.,-1.5,-5.));
#768=CARTESIAN_POINT('',(-15.,-1.5,0.));
#769=CARTESIAN_POINT('Origin',(-5.,-1.5,0.));
#770=CARTESIAN_POINT('',(-5.,-1.5,0.));
#771=CARTESIAN_POINT('Origin',(-9.00000013411045,20.0000002160668,-5.));
#772=CARTESIAN_POINT('',(-10.0000001341105,20.0000002160668,0.));
#773=CARTESIAN_POINT('',(-10.0000001341105,20.0000002160668,-5.));
#774=CARTESIAN_POINT('Origin',(-9.00000013411045,20.0000002160668,0.));
#775=CARTESIAN_POINT('Origin',(-9.00000013411045,14.0000000596046,-5.));
#776=CARTESIAN_POINT('',(-10.0000001341105,14.0000000596046,0.));
#777=CARTESIAN_POINT('',(-10.0000001341105,14.0000000596046,-5.));
#778=CARTESIAN_POINT('Origin',(-9.00000013411045,14.0000000596046,0.));
#779=CARTESIAN_POINT('Origin',(-9.00000013411045,30.0000002160668,-5.));
#780=CARTESIAN_POINT('',(-9.99999991804361,30.0000002160668,0.));
#781=CARTESIAN_POINT('',(-9.99999991804361,30.0000002160668,-5.));
#782=CARTESIAN_POINT('Origin',(-9.00000013411045,30.0000002160668,0.));
#783=CARTESIAN_POINT('Origin',(-9.00000013411045,5.00000004470348,-5.));
#784=CARTESIAN_POINT('',(-10.0000001788139,5.00000004470348,0.));
#785=CARTESIAN_POINT('',(-10.0000001788139,5.00000004470348,-5.));
#786=CARTESIAN_POINT('Origin',(-9.00000013411045,5.00000004470348,0.));
#787=CARTESIAN_POINT('Origin',(-5.,36.5,0.));
#788=CARTESIAN_POINT('',(-5.,22.25,0.));
#789=CARTESIAN_POINT('',(-5.,12.75,0.));
#790=CARTESIAN_POINT('',(-5.,17.5,0.));
#791=CARTESIAN_POINT('',(-5.,12.75,0.));
#792=CARTESIAN_POINT('',(-5.,22.25,0.));
#793=CARTESIAN_POINT('Origin',(5.,5.,0.));
#794=CARTESIAN_POINT('',(5.,5.,0.));
#795=CARTESIAN_POINT('',(5.,11.25,0.));
#796=CARTESIAN_POINT('',(5.,5.,0.));
#797=CARTESIAN_POINT('Origin',(112.75,5.,0.));
#798=CARTESIAN_POINT('',(86.375,5.,0.));
#799=CARTESIAN_POINT('Origin',(60.,17.5,0.));
#800=CARTESIAN_POINT('',(-5.,35.,0.));
#801=CARTESIAN_POINT('',(0.,22.25,0.));
#802=CARTESIAN_POINT('',(-5.,22.25,0.));
#803=CARTESIAN_POINT('',(0.,12.75,0.));
#804=CARTESIAN_POINT('',(0.,22.25,0.));
#805=CARTESIAN_POINT('',(0.,12.75,0.));
#806=CARTESIAN_POINT('Origin',(0.,22.25,0.));
#807=CARTESIAN_POINT('',(0.,22.25,0.));
#808=CARTESIAN_POINT('Origin',(0.,12.75,0.));
#809=CARTESIAN_POINT('',(0.,12.75,0.));
#810=CARTESIAN_POINT('Origin',(-5.,12.75,0.));
#811=CARTESIAN_POINT('Origin',(-5.,35.,0.));
#812=UNCERTAINTY_MEASURE_WITH_UNIT(LENGTH_MEASURE(0.01),#816,
'DISTANCE_ACCURACY_VALUE',
'Maximum model space distance between geometric entities at asserted c
onnectivities');
#813=UNCERTAINTY_MEASURE_WITH_UNIT(LENGTH_MEASURE(0.01),#816,
'DISTANCE_ACCURACY_VALUE',
'Maximum model space distance between geometric entities at asserted c
onnectivities');
#814=(
GEOMETRIC_REPRESENTATION_CONTEXT(3)
GLOBAL_UNCERTAINTY_ASSIGNED_CONTEXT((#812))
GLOBAL_UNIT_ASSIGNED_CONTEXT((#816,#818,#819))
REPRESENTATION_CONTEXT('','3D')
);
#815=(
GEOMETRIC_REPRESENTATION_CONTEXT(3)
GLOBAL_UNCERTAINTY_ASSIGNED_CONTEXT((#813))
GLOBAL_UNIT_ASSIGNED_CONTEXT((#816,#818,#819))
REPRESENTATION_CONTEXT('','3D')
);
#816=(
LENGTH_UNIT()
NAMED_UNIT(*)
SI_UNIT(.MILLI.,.METRE.)
);
#817=(
LENGTH_UNIT()
NAMED_UNIT(*)
SI_UNIT($,.METRE.)
);
#818=(
NAMED_UNIT(*)
PLANE_ANGLE_UNIT()
SI_UNIT($,.RADIAN.)
);
#819=(
NAMED_UNIT(*)
SI_UNIT($,.STERADIAN.)
SOLID_ANGLE_UNIT()
);
#820=SHAPE_DEFINITION_REPRESENTATION(#821,#822);
#821=PRODUCT_DEFINITION_SHAPE('',$,#824);
#822=SHAPE_REPRESENTATION('',(#516),#814);
#823=PRODUCT_DEFINITION_CONTEXT('part definition',#828,'design');
#824=PRODUCT_DEFINITION('battery holder','battery holder v6',#825,#823);
#825=PRODUCT_DEFINITION_FORMATION('',$,#830);
#826=PRODUCT_RELATED_PRODUCT_CATEGORY('battery holder v6',
'battery holder v6',(#830));
#827=APPLICATION_PROTOCOL_DEFINITION('international standard',
'automotive_design',2009,#828);
#828=APPLICATION_CONTEXT(
'Core Data for Automotive Mechanical Design Process');
#829=PRODUCT_CONTEXT('part definition',#828,'mechanical');
#830=PRODUCT('battery holder','battery holder v6',$,(#829));
#831=PRESENTATION_STYLE_ASSIGNMENT((#832));
#832=SURFACE_STYLE_USAGE(.BOTH.,#833);
#833=SURFACE_SIDE_STYLE('',(#834));
#834=SURFACE_STYLE_FILL_AREA(#835);
#835=FILL_AREA_STYLE('Steel - Satin',(#836));
#836=FILL_AREA_STYLE_COLOUR('Steel - Satin',#837);
#837=COLOUR_RGB('Steel - Satin',0.627450980392157,0.627450980392157,0.627450980392157);
ENDSEC;
END-ISO-10303-21;
