ISO-10303-21;
HEADER;
/* Generated by software containing ST-Developer
 * from STEP Tools, Inc. (www.steptools.com) 
 */

FILE_DESCRIPTION(
/* description */ (''),
/* implementation_level */ '2;1');

FILE_NAME(
/* name */ 'ultrasonic sensor holder.step',
/* time_stamp */ '2026-04-13T09:34:20+02:00',
/* author */ (''),
/* organization */ (''),
/* preprocessor_version */ 'ST-DEVELOPER v20.1',
/* originating_system */ 'Autodesk Translation Framework v14.24.0.0',
/* authorisation */ '');

FILE_SCHEMA (('AUTOMOTIVE_DESIGN { 1 0 10303 214 3 1 1 }'));
ENDSEC;

DATA;
#10=MECHANICAL_DESIGN_GEOMETRIC_PRESENTATION_REPRESENTATION('',(#13),#1117);
#11=SHAPE_REPRESENTATION_RELATIONSHIP('SRR','None',#1124,#12);
#12=ADVANCED_BREP_SHAPE_REPRESENTATION('',(#14),#1116);
#13=STYLED_ITEM('',(#1133),#14);
#14=MANIFOLD_SOLID_BREP('Body1',#674);
#15=CYLINDRICAL_SURFACE('',#719,1.);
#16=CYLINDRICAL_SURFACE('',#722,1.);
#17=CYLINDRICAL_SURFACE('',#725,1.);
#18=CYLINDRICAL_SURFACE('',#728,1.);
#19=CYLINDRICAL_SURFACE('',#737,8.75);
#20=CYLINDRICAL_SURFACE('',#738,8.75);
#21=CYLINDRICAL_SURFACE('',#741,2.25);
#22=CYLINDRICAL_SURFACE('',#742,2.25);
#23=FACE_BOUND('',#92,.T.);
#24=FACE_BOUND('',#94,.T.);
#25=FACE_BOUND('',#95,.T.);
#26=FACE_BOUND('',#96,.T.);
#27=FACE_BOUND('',#97,.T.);
#28=FACE_BOUND('',#100,.T.);
#29=FACE_BOUND('',#101,.T.);
#30=FACE_BOUND('',#102,.T.);
#31=FACE_BOUND('',#103,.T.);
#32=FACE_BOUND('',#110,.T.);
#33=CIRCLE('',#692,2.25);
#34=CIRCLE('',#694,8.75);
#35=CIRCLE('',#695,8.75);
#36=CIRCLE('',#696,8.75);
#37=CIRCLE('',#697,1.);
#38=CIRCLE('',#698,1.);
#39=CIRCLE('',#699,1.);
#40=CIRCLE('',#700,1.);
#41=CIRCLE('',#703,2.25);
#42=CIRCLE('',#704,2.25);
#43=CIRCLE('',#705,8.75);
#44=CIRCLE('',#706,8.75);
#45=CIRCLE('',#713,2.25);
#46=CIRCLE('',#720,1.);
#47=CIRCLE('',#723,1.);
#48=CIRCLE('',#726,1.);
#49=CIRCLE('',#729,1.);
#50=CIRCLE('',#735,8.75);
#51=CIRCLE('',#736,8.75);
#52=FACE_OUTER_BOUND('',#88,.T.);
#53=FACE_OUTER_BOUND('',#89,.T.);
#54=FACE_OUTER_BOUND('',#90,.T.);
#55=FACE_OUTER_BOUND('',#91,.T.);
#56=FACE_OUTER_BOUND('',#93,.T.);
#57=FACE_OUTER_BOUND('',#98,.T.);
#58=FACE_OUTER_BOUND('',#99,.T.);
#59=FACE_OUTER_BOUND('',#104,.T.);
#60=FACE_OUTER_BOUND('',#105,.T.);
#61=FACE_OUTER_BOUND('',#106,.T.);
#62=FACE_OUTER_BOUND('',#107,.T.);
#63=FACE_OUTER_BOUND('',#108,.T.);
#64=FACE_OUTER_BOUND('',#109,.T.);
#65=FACE_OUTER_BOUND('',#111,.T.);
#66=FACE_OUTER_BOUND('',#112,.T.);
#67=FACE_OUTER_BOUND('',#113,.T.);
#68=FACE_OUTER_BOUND('',#114,.T.);
#69=FACE_OUTER_BOUND('',#115,.T.);
#70=FACE_OUTER_BOUND('',#116,.T.);
#71=FACE_OUTER_BOUND('',#117,.T.);
#72=FACE_OUTER_BOUND('',#118,.T.);
#73=FACE_OUTER_BOUND('',#119,.T.);
#74=FACE_OUTER_BOUND('',#120,.T.);
#75=FACE_OUTER_BOUND('',#121,.T.);
#76=FACE_OUTER_BOUND('',#122,.T.);
#77=FACE_OUTER_BOUND('',#123,.T.);
#78=FACE_OUTER_BOUND('',#124,.T.);
#79=FACE_OUTER_BOUND('',#125,.T.);
#80=FACE_OUTER_BOUND('',#126,.T.);
#81=FACE_OUTER_BOUND('',#127,.T.);
#82=FACE_OUTER_BOUND('',#128,.T.);
#83=FACE_OUTER_BOUND('',#129,.T.);
#84=FACE_OUTER_BOUND('',#130,.T.);
#85=FACE_OUTER_BOUND('',#131,.T.);
#86=FACE_OUTER_BOUND('',#132,.T.);
#87=FACE_OUTER_BOUND('',#133,.T.);
#88=EDGE_LOOP('',(#428,#429,#430,#431,#432,#433,#434));
#89=EDGE_LOOP('',(#435,#436,#437,#438));
#90=EDGE_LOOP('',(#439,#440,#441,#442));
#91=EDGE_LOOP('',(#443,#444,#445,#446));
#92=EDGE_LOOP('',(#447));
#93=EDGE_LOOP('',(#448,#449,#450,#451,#452,#453,#454,#455,#456,#457,#458,
#459,#460));
#94=EDGE_LOOP('',(#461));
#95=EDGE_LOOP('',(#462));
#96=EDGE_LOOP('',(#463));
#97=EDGE_LOOP('',(#464));
#98=EDGE_LOOP('',(#465,#466,#467,#468));
#99=EDGE_LOOP('',(#469,#470,#471,#472,#473,#474,#475,#476,#477,#478,#479,
#480));
#100=EDGE_LOOP('',(#481));
#101=EDGE_LOOP('',(#482));
#102=EDGE_LOOP('',(#483));
#103=EDGE_LOOP('',(#484));
#104=EDGE_LOOP('',(#485,#486,#487,#488,#489));
#105=EDGE_LOOP('',(#490,#491,#492,#493,#494));
#106=EDGE_LOOP('',(#495,#496,#497,#498,#499,#500,#501));
#107=EDGE_LOOP('',(#502,#503,#504,#505));
#108=EDGE_LOOP('',(#506,#507,#508,#509));
#109=EDGE_LOOP('',(#510,#511,#512,#513));
#110=EDGE_LOOP('',(#514));
#111=EDGE_LOOP('',(#515,#516,#517,#518,#519,#520));
#112=EDGE_LOOP('',(#521,#522,#523,#524,#525,#526));
#113=EDGE_LOOP('',(#527,#528,#529,#530));
#114=EDGE_LOOP('',(#531,#532,#533,#534));
#115=EDGE_LOOP('',(#535,#536,#537,#538));
#116=EDGE_LOOP('',(#539,#540,#541,#542));
#117=EDGE_LOOP('',(#543));
#118=EDGE_LOOP('',(#544,#545,#546,#547));
#119=EDGE_LOOP('',(#548));
#120=EDGE_LOOP('',(#549,#550,#551,#552));
#121=EDGE_LOOP('',(#553));
#122=EDGE_LOOP('',(#554,#555,#556,#557));
#123=EDGE_LOOP('',(#558));
#124=EDGE_LOOP('',(#559,#560,#561,#562));
#125=EDGE_LOOP('',(#563,#564,#565,#566));
#126=EDGE_LOOP('',(#567,#568,#569,#570));
#127=EDGE_LOOP('',(#571,#572,#573,#574,#575,#576,#577,#578));
#128=EDGE_LOOP('',(#579,#580,#581,#582,#583,#584,#585));
#129=EDGE_LOOP('',(#586,#587,#588,#589,#590,#591,#592,#593));
#130=EDGE_LOOP('',(#594,#595,#596,#597));
#131=EDGE_LOOP('',(#598,#599,#600,#601));
#132=EDGE_LOOP('',(#602,#603,#604,#605));
#133=EDGE_LOOP('',(#606,#607,#608,#609));
#134=LINE('',#931,#206);
#135=LINE('',#933,#207);
#136=LINE('',#935,#208);
#137=LINE('',#937,#209);
#138=LINE('',#939,#210);
#139=LINE('',#941,#211);
#140=LINE('',#942,#212);
#141=LINE('',#945,#213);
#142=LINE('',#947,#214);
#143=LINE('',#948,#215);
#144=LINE('',#951,#216);
#145=LINE('',#953,#217);
#146=LINE('',#954,#218);
#147=LINE('',#957,#219);
#148=LINE('',#958,#220);
#149=LINE('',#964,#221);
#150=LINE('',#966,#222);
#151=LINE('',#972,#223);
#152=LINE('',#976,#224);
#153=LINE('',#978,#225);
#154=LINE('',#980,#226);
#155=LINE('',#982,#227);
#156=LINE('',#984,#228);
#157=LINE('',#986,#229);
#158=LINE('',#987,#230);
#159=LINE('',#998,#231);
#160=LINE('',#999,#232);
#161=LINE('',#1002,#233);
#162=LINE('',#1004,#234);
#163=LINE('',#1006,#235);
#164=LINE('',#1008,#236);
#165=LINE('',#1010,#237);
#166=LINE('',#1012,#238);
#167=LINE('',#1014,#239);
#168=LINE('',#1016,#240);
#169=LINE('',#1018,#241);
#170=LINE('',#1019,#242);
#171=LINE('',#1029,#243);
#172=LINE('',#1031,#244);
#173=LINE('',#1033,#245);
#174=LINE('',#1034,#246);
#175=LINE('',#1037,#247);
#176=LINE('',#1039,#248);
#177=LINE('',#1040,#249);
#178=LINE('',#1041,#250);
#179=LINE('',#1043,#251);
#180=LINE('',#1044,#252);
#181=LINE('',#1047,#253);
#182=LINE('',#1049,#254);
#183=LINE('',#1053,#255);
#184=LINE('',#1055,#256);
#185=LINE('',#1056,#257);
#186=LINE('',#1058,#258);
#187=LINE('',#1060,#259);
#188=LINE('',#1061,#260);
#189=LINE('',#1063,#261);
#190=LINE('',#1065,#262);
#191=LINE('',#1069,#263);
#192=LINE('',#1074,#264);
#193=LINE('',#1079,#265);
#194=LINE('',#1084,#266);
#195=LINE('',#1089,#267);
#196=LINE('',#1090,#268);
#197=LINE('',#1093,#269);
#198=LINE('',#1095,#270);
#199=LINE('',#1096,#271);
#200=LINE('',#1099,#272);
#201=LINE('',#1100,#273);
#202=LINE('',#1105,#274);
#203=LINE('',#1107,#275);
#204=LINE('',#1111,#276);
#205=LINE('',#1113,#277);
#206=VECTOR('',#747,10.);
#207=VECTOR('',#748,10.);
#208=VECTOR('',#749,10.);
#209=VECTOR('',#750,10.);
#210=VECTOR('',#751,10.);
#211=VECTOR('',#752,10.);
#212=VECTOR('',#753,10.);
#213=VECTOR('',#756,10.);
#214=VECTOR('',#757,10.);
#215=VECTOR('',#758,10.);
#216=VECTOR('',#761,10.);
#217=VECTOR('',#762,10.);
#218=VECTOR('',#763,10.);
#219=VECTOR('',#766,10.);
#220=VECTOR('',#767,10.);
#221=VECTOR('',#772,10.);
#222=VECTOR('',#773,10.);
#223=VECTOR('',#778,10.);
#224=VECTOR('',#781,10.);
#225=VECTOR('',#782,10.);
#226=VECTOR('',#783,10.);
#227=VECTOR('',#784,10.);
#228=VECTOR('',#785,10.);
#229=VECTOR('',#786,10.);
#230=VECTOR('',#787,10.);
#231=VECTOR('',#798,10.);
#232=VECTOR('',#799,10.);
#233=VECTOR('',#802,10.);
#234=VECTOR('',#803,10.);
#235=VECTOR('',#804,10.);
#236=VECTOR('',#805,10.);
#237=VECTOR('',#806,10.);
#238=VECTOR('',#807,10.);
#239=VECTOR('',#808,10.);
#240=VECTOR('',#809,10.);
#241=VECTOR('',#810,10.);
#242=VECTOR('',#811,10.);
#243=VECTOR('',#822,10.);
#244=VECTOR('',#823,10.);
#245=VECTOR('',#824,10.);
#246=VECTOR('',#825,10.);
#247=VECTOR('',#828,10.);
#248=VECTOR('',#829,10.);
#249=VECTOR('',#830,10.);
#250=VECTOR('',#831,10.);
#251=VECTOR('',#834,10.);
#252=VECTOR('',#835,10.);
#253=VECTOR('',#840,10.);
#254=VECTOR('',#843,10.);
#255=VECTOR('',#848,10.);
#256=VECTOR('',#849,10.);
#257=VECTOR('',#850,10.);
#258=VECTOR('',#853,10.);
#259=VECTOR('',#854,10.);
#260=VECTOR('',#855,10.);
#261=VECTOR('',#858,10.);
#262=VECTOR('',#861,10.);
#263=VECTOR('',#866,1.);
#264=VECTOR('',#873,1.);
#265=VECTOR('',#880,1.);
#266=VECTOR('',#887,1.);
#267=VECTOR('',#894,10.);
#268=VECTOR('',#895,10.);
#269=VECTOR('',#898,10.);
#270=VECTOR('',#899,10.);
#271=VECTOR('',#900,10.);
#272=VECTOR('',#903,10.);
#273=VECTOR('',#904,10.);
#274=VECTOR('',#913,8.75);
#275=VECTOR('',#916,8.75);
#276=VECTOR('',#923,2.25);
#277=VECTOR('',#926,2.25);
#278=VERTEX_POINT('',#929);
#279=VERTEX_POINT('',#930);
#280=VERTEX_POINT('',#932);
#281=VERTEX_POINT('',#934);
#282=VERTEX_POINT('',#936);
#283=VERTEX_POINT('',#938);
#284=VERTEX_POINT('',#940);
#285=VERTEX_POINT('',#944);
#286=VERTEX_POINT('',#946);
#287=VERTEX_POINT('',#950);
#288=VERTEX_POINT('',#952);
#289=VERTEX_POINT('',#956);
#290=VERTEX_POINT('',#959);
#291=VERTEX_POINT('',#962);
#292=VERTEX_POINT('',#963);
#293=VERTEX_POINT('',#965);
#294=VERTEX_POINT('',#967);
#295=VERTEX_POINT('',#969);
#296=VERTEX_POINT('',#971);
#297=VERTEX_POINT('',#973);
#298=VERTEX_POINT('',#975);
#299=VERTEX_POINT('',#977);
#300=VERTEX_POINT('',#979);
#301=VERTEX_POINT('',#981);
#302=VERTEX_POINT('',#983);
#303=VERTEX_POINT('',#985);
#304=VERTEX_POINT('',#988);
#305=VERTEX_POINT('',#990);
#306=VERTEX_POINT('',#992);
#307=VERTEX_POINT('',#994);
#308=VERTEX_POINT('',#997);
#309=VERTEX_POINT('',#1001);
#310=VERTEX_POINT('',#1003);
#311=VERTEX_POINT('',#1005);
#312=VERTEX_POINT('',#1007);
#313=VERTEX_POINT('',#1009);
#314=VERTEX_POINT('',#1011);
#315=VERTEX_POINT('',#1013);
#316=VERTEX_POINT('',#1015);
#317=VERTEX_POINT('',#1017);
#318=VERTEX_POINT('',#1020);
#319=VERTEX_POINT('',#1022);
#320=VERTEX_POINT('',#1024);
#321=VERTEX_POINT('',#1026);
#322=VERTEX_POINT('',#1030);
#323=VERTEX_POINT('',#1032);
#324=VERTEX_POINT('',#1036);
#325=VERTEX_POINT('',#1038);
#326=VERTEX_POINT('',#1050);
#327=VERTEX_POINT('',#1054);
#328=VERTEX_POINT('',#1059);
#329=VERTEX_POINT('',#1068);
#330=VERTEX_POINT('',#1073);
#331=VERTEX_POINT('',#1078);
#332=VERTEX_POINT('',#1083);
#333=VERTEX_POINT('',#1088);
#334=VERTEX_POINT('',#1092);
#335=VERTEX_POINT('',#1094);
#336=VERTEX_POINT('',#1098);
#337=EDGE_CURVE('',#278,#279,#134,.T.);
#338=EDGE_CURVE('',#280,#278,#135,.T.);
#339=EDGE_CURVE('',#281,#280,#136,.T.);
#340=EDGE_CURVE('',#282,#281,#137,.T.);
#341=EDGE_CURVE('',#283,#282,#138,.T.);
#342=EDGE_CURVE('',#284,#283,#139,.T.);
#343=EDGE_CURVE('',#279,#284,#140,.T.);
#344=EDGE_CURVE('',#285,#283,#141,.T.);
#345=EDGE_CURVE('',#285,#286,#142,.T.);
#346=EDGE_CURVE('',#286,#284,#143,.T.);
#347=EDGE_CURVE('',#287,#281,#144,.T.);
#348=EDGE_CURVE('',#287,#288,#145,.T.);
#349=EDGE_CURVE('',#282,#288,#146,.T.);
#350=EDGE_CURVE('',#280,#289,#147,.T.);
#351=EDGE_CURVE('',#289,#287,#148,.T.);
#352=EDGE_CURVE('',#290,#290,#33,.T.);
#353=EDGE_CURVE('',#291,#292,#149,.T.);
#354=EDGE_CURVE('',#292,#293,#150,.T.);
#355=EDGE_CURVE('',#293,#294,#34,.T.);
#356=EDGE_CURVE('',#294,#295,#35,.T.);
#357=EDGE_CURVE('',#295,#296,#151,.T.);
#358=EDGE_CURVE('',#296,#297,#36,.T.);
#359=EDGE_CURVE('',#297,#298,#152,.T.);
#360=EDGE_CURVE('',#298,#299,#153,.T.);
#361=EDGE_CURVE('',#299,#300,#154,.T.);
#362=EDGE_CURVE('',#300,#301,#155,.T.);
#363=EDGE_CURVE('',#301,#302,#156,.T.);
#364=EDGE_CURVE('',#302,#303,#157,.T.);
#365=EDGE_CURVE('',#303,#291,#158,.T.);
#366=EDGE_CURVE('',#304,#304,#37,.T.);
#367=EDGE_CURVE('',#305,#305,#38,.T.);
#368=EDGE_CURVE('',#306,#306,#39,.T.);
#369=EDGE_CURVE('',#307,#307,#40,.T.);
#370=EDGE_CURVE('',#308,#278,#159,.T.);
#371=EDGE_CURVE('',#308,#289,#160,.T.);
#372=EDGE_CURVE('',#279,#309,#161,.T.);
#373=EDGE_CURVE('',#309,#310,#162,.T.);
#374=EDGE_CURVE('',#310,#311,#163,.T.);
#375=EDGE_CURVE('',#311,#312,#164,.T.);
#376=EDGE_CURVE('',#312,#313,#165,.T.);
#377=EDGE_CURVE('',#313,#314,#166,.T.);
#378=EDGE_CURVE('',#315,#314,#167,.T.);
#379=EDGE_CURVE('',#315,#316,#168,.T.);
#380=EDGE_CURVE('',#316,#317,#169,.T.);
#381=EDGE_CURVE('',#317,#308,#170,.T.);
#382=EDGE_CURVE('',#318,#318,#41,.T.);
#383=EDGE_CURVE('',#319,#319,#42,.T.);
#384=EDGE_CURVE('',#320,#320,#43,.T.);
#385=EDGE_CURVE('',#321,#321,#44,.T.);
#386=EDGE_CURVE('',#302,#311,#171,.T.);
#387=EDGE_CURVE('',#322,#302,#172,.T.);
#388=EDGE_CURVE('',#323,#322,#173,.T.);
#389=EDGE_CURVE('',#312,#323,#174,.T.);
#390=EDGE_CURVE('',#324,#313,#175,.T.);
#391=EDGE_CURVE('',#325,#324,#176,.T.);
#392=EDGE_CURVE('',#301,#325,#177,.T.);
#393=EDGE_CURVE('',#314,#301,#178,.T.);
#394=EDGE_CURVE('',#286,#317,#179,.T.);
#395=EDGE_CURVE('',#288,#285,#180,.T.);
#396=EDGE_CURVE('',#322,#325,#181,.T.);
#397=EDGE_CURVE('',#324,#323,#182,.T.);
#398=EDGE_CURVE('',#326,#326,#45,.T.);
#399=EDGE_CURVE('',#316,#299,#183,.T.);
#400=EDGE_CURVE('',#298,#327,#184,.T.);
#401=EDGE_CURVE('',#327,#286,#185,.T.);
#402=EDGE_CURVE('',#291,#309,#186,.T.);
#403=EDGE_CURVE('',#284,#328,#187,.T.);
#404=EDGE_CURVE('',#328,#292,#188,.T.);
#405=EDGE_CURVE('',#300,#315,#189,.T.);
#406=EDGE_CURVE('',#310,#303,#190,.T.);
#407=EDGE_CURVE('',#304,#329,#191,.T.);
#408=EDGE_CURVE('',#329,#329,#46,.T.);
#409=EDGE_CURVE('',#305,#330,#192,.T.);
#410=EDGE_CURVE('',#330,#330,#47,.T.);
#411=EDGE_CURVE('',#306,#331,#193,.T.);
#412=EDGE_CURVE('',#331,#331,#48,.T.);
#413=EDGE_CURVE('',#307,#332,#194,.T.);
#414=EDGE_CURVE('',#332,#332,#49,.T.);
#415=EDGE_CURVE('',#333,#297,#195,.T.);
#416=EDGE_CURVE('',#333,#327,#196,.T.);
#417=EDGE_CURVE('',#334,#295,#197,.T.);
#418=EDGE_CURVE('',#334,#335,#198,.T.);
#419=EDGE_CURVE('',#296,#335,#199,.T.);
#420=EDGE_CURVE('',#328,#336,#200,.T.);
#421=EDGE_CURVE('',#293,#336,#201,.T.);
#422=EDGE_CURVE('',#335,#333,#50,.T.);
#423=EDGE_CURVE('',#336,#334,#51,.T.);
#424=EDGE_CURVE('',#335,#321,#202,.T.);
#425=EDGE_CURVE('',#294,#320,#203,.T.);
#426=EDGE_CURVE('',#290,#318,#204,.T.);
#427=EDGE_CURVE('',#326,#319,#205,.T.);
#428=ORIENTED_EDGE('',*,*,#337,.F.);
#429=ORIENTED_EDGE('',*,*,#338,.F.);
#430=ORIENTED_EDGE('',*,*,#339,.F.);
#431=ORIENTED_EDGE('',*,*,#340,.F.);
#432=ORIENTED_EDGE('',*,*,#341,.F.);
#433=ORIENTED_EDGE('',*,*,#342,.F.);
#434=ORIENTED_EDGE('',*,*,#343,.F.);
#435=ORIENTED_EDGE('',*,*,#342,.T.);
#436=ORIENTED_EDGE('',*,*,#344,.F.);
#437=ORIENTED_EDGE('',*,*,#345,.T.);
#438=ORIENTED_EDGE('',*,*,#346,.T.);
#439=ORIENTED_EDGE('',*,*,#340,.T.);
#440=ORIENTED_EDGE('',*,*,#347,.F.);
#441=ORIENTED_EDGE('',*,*,#348,.T.);
#442=ORIENTED_EDGE('',*,*,#349,.F.);
#443=ORIENTED_EDGE('',*,*,#339,.T.);
#444=ORIENTED_EDGE('',*,*,#350,.T.);
#445=ORIENTED_EDGE('',*,*,#351,.T.);
#446=ORIENTED_EDGE('',*,*,#347,.T.);
#447=ORIENTED_EDGE('',*,*,#352,.T.);
#448=ORIENTED_EDGE('',*,*,#353,.T.);
#449=ORIENTED_EDGE('',*,*,#354,.T.);
#450=ORIENTED_EDGE('',*,*,#355,.T.);
#451=ORIENTED_EDGE('',*,*,#356,.T.);
#452=ORIENTED_EDGE('',*,*,#357,.T.);
#453=ORIENTED_EDGE('',*,*,#358,.T.);
#454=ORIENTED_EDGE('',*,*,#359,.T.);
#455=ORIENTED_EDGE('',*,*,#360,.T.);
#456=ORIENTED_EDGE('',*,*,#361,.T.);
#457=ORIENTED_EDGE('',*,*,#362,.T.);
#458=ORIENTED_EDGE('',*,*,#363,.T.);
#459=ORIENTED_EDGE('',*,*,#364,.T.);
#460=ORIENTED_EDGE('',*,*,#365,.T.);
#461=ORIENTED_EDGE('',*,*,#366,.T.);
#462=ORIENTED_EDGE('',*,*,#367,.T.);
#463=ORIENTED_EDGE('',*,*,#368,.T.);
#464=ORIENTED_EDGE('',*,*,#369,.T.);
#465=ORIENTED_EDGE('',*,*,#338,.T.);
#466=ORIENTED_EDGE('',*,*,#370,.F.);
#467=ORIENTED_EDGE('',*,*,#371,.T.);
#468=ORIENTED_EDGE('',*,*,#350,.F.);
#469=ORIENTED_EDGE('',*,*,#337,.T.);
#470=ORIENTED_EDGE('',*,*,#372,.T.);
#471=ORIENTED_EDGE('',*,*,#373,.T.);
#472=ORIENTED_EDGE('',*,*,#374,.T.);
#473=ORIENTED_EDGE('',*,*,#375,.T.);
#474=ORIENTED_EDGE('',*,*,#376,.T.);
#475=ORIENTED_EDGE('',*,*,#377,.T.);
#476=ORIENTED_EDGE('',*,*,#378,.F.);
#477=ORIENTED_EDGE('',*,*,#379,.T.);
#478=ORIENTED_EDGE('',*,*,#380,.T.);
#479=ORIENTED_EDGE('',*,*,#381,.T.);
#480=ORIENTED_EDGE('',*,*,#370,.T.);
#481=ORIENTED_EDGE('',*,*,#382,.F.);
#482=ORIENTED_EDGE('',*,*,#383,.F.);
#483=ORIENTED_EDGE('',*,*,#384,.T.);
#484=ORIENTED_EDGE('',*,*,#385,.T.);
#485=ORIENTED_EDGE('',*,*,#375,.F.);
#486=ORIENTED_EDGE('',*,*,#386,.F.);
#487=ORIENTED_EDGE('',*,*,#387,.F.);
#488=ORIENTED_EDGE('',*,*,#388,.F.);
#489=ORIENTED_EDGE('',*,*,#389,.F.);
#490=ORIENTED_EDGE('',*,*,#377,.F.);
#491=ORIENTED_EDGE('',*,*,#390,.F.);
#492=ORIENTED_EDGE('',*,*,#391,.F.);
#493=ORIENTED_EDGE('',*,*,#392,.F.);
#494=ORIENTED_EDGE('',*,*,#393,.F.);
#495=ORIENTED_EDGE('',*,*,#381,.F.);
#496=ORIENTED_EDGE('',*,*,#394,.F.);
#497=ORIENTED_EDGE('',*,*,#345,.F.);
#498=ORIENTED_EDGE('',*,*,#395,.F.);
#499=ORIENTED_EDGE('',*,*,#348,.F.);
#500=ORIENTED_EDGE('',*,*,#351,.F.);
#501=ORIENTED_EDGE('',*,*,#371,.F.);
#502=ORIENTED_EDGE('',*,*,#341,.T.);
#503=ORIENTED_EDGE('',*,*,#349,.T.);
#504=ORIENTED_EDGE('',*,*,#395,.T.);
#505=ORIENTED_EDGE('',*,*,#344,.T.);
#506=ORIENTED_EDGE('',*,*,#387,.T.);
#507=ORIENTED_EDGE('',*,*,#363,.F.);
#508=ORIENTED_EDGE('',*,*,#392,.T.);
#509=ORIENTED_EDGE('',*,*,#396,.F.);
#510=ORIENTED_EDGE('',*,*,#388,.T.);
#511=ORIENTED_EDGE('',*,*,#396,.T.);
#512=ORIENTED_EDGE('',*,*,#391,.T.);
#513=ORIENTED_EDGE('',*,*,#397,.T.);
#514=ORIENTED_EDGE('',*,*,#398,.T.);
#515=ORIENTED_EDGE('',*,*,#380,.F.);
#516=ORIENTED_EDGE('',*,*,#399,.T.);
#517=ORIENTED_EDGE('',*,*,#360,.F.);
#518=ORIENTED_EDGE('',*,*,#400,.T.);
#519=ORIENTED_EDGE('',*,*,#401,.T.);
#520=ORIENTED_EDGE('',*,*,#394,.T.);
#521=ORIENTED_EDGE('',*,*,#353,.F.);
#522=ORIENTED_EDGE('',*,*,#402,.T.);
#523=ORIENTED_EDGE('',*,*,#372,.F.);
#524=ORIENTED_EDGE('',*,*,#343,.T.);
#525=ORIENTED_EDGE('',*,*,#403,.T.);
#526=ORIENTED_EDGE('',*,*,#404,.T.);
#527=ORIENTED_EDGE('',*,*,#379,.F.);
#528=ORIENTED_EDGE('',*,*,#405,.F.);
#529=ORIENTED_EDGE('',*,*,#361,.F.);
#530=ORIENTED_EDGE('',*,*,#399,.F.);
#531=ORIENTED_EDGE('',*,*,#373,.F.);
#532=ORIENTED_EDGE('',*,*,#402,.F.);
#533=ORIENTED_EDGE('',*,*,#365,.F.);
#534=ORIENTED_EDGE('',*,*,#406,.F.);
#535=ORIENTED_EDGE('',*,*,#406,.T.);
#536=ORIENTED_EDGE('',*,*,#364,.F.);
#537=ORIENTED_EDGE('',*,*,#386,.T.);
#538=ORIENTED_EDGE('',*,*,#374,.F.);
#539=ORIENTED_EDGE('',*,*,#366,.F.);
#540=ORIENTED_EDGE('',*,*,#407,.T.);
#541=ORIENTED_EDGE('',*,*,#408,.T.);
#542=ORIENTED_EDGE('',*,*,#407,.F.);
#543=ORIENTED_EDGE('',*,*,#408,.F.);
#544=ORIENTED_EDGE('',*,*,#367,.F.);
#545=ORIENTED_EDGE('',*,*,#409,.T.);
#546=ORIENTED_EDGE('',*,*,#410,.T.);
#547=ORIENTED_EDGE('',*,*,#409,.F.);
#548=ORIENTED_EDGE('',*,*,#410,.F.);
#549=ORIENTED_EDGE('',*,*,#368,.F.);
#550=ORIENTED_EDGE('',*,*,#411,.T.);
#551=ORIENTED_EDGE('',*,*,#412,.T.);
#552=ORIENTED_EDGE('',*,*,#411,.F.);
#553=ORIENTED_EDGE('',*,*,#412,.F.);
#554=ORIENTED_EDGE('',*,*,#369,.F.);
#555=ORIENTED_EDGE('',*,*,#413,.T.);
#556=ORIENTED_EDGE('',*,*,#414,.T.);
#557=ORIENTED_EDGE('',*,*,#413,.F.);
#558=ORIENTED_EDGE('',*,*,#414,.F.);
#559=ORIENTED_EDGE('',*,*,#359,.F.);
#560=ORIENTED_EDGE('',*,*,#415,.F.);
#561=ORIENTED_EDGE('',*,*,#416,.T.);
#562=ORIENTED_EDGE('',*,*,#400,.F.);
#563=ORIENTED_EDGE('',*,*,#357,.F.);
#564=ORIENTED_EDGE('',*,*,#417,.F.);
#565=ORIENTED_EDGE('',*,*,#418,.T.);
#566=ORIENTED_EDGE('',*,*,#419,.F.);
#567=ORIENTED_EDGE('',*,*,#354,.F.);
#568=ORIENTED_EDGE('',*,*,#404,.F.);
#569=ORIENTED_EDGE('',*,*,#420,.T.);
#570=ORIENTED_EDGE('',*,*,#421,.F.);
#571=ORIENTED_EDGE('',*,*,#401,.F.);
#572=ORIENTED_EDGE('',*,*,#416,.F.);
#573=ORIENTED_EDGE('',*,*,#422,.F.);
#574=ORIENTED_EDGE('',*,*,#418,.F.);
#575=ORIENTED_EDGE('',*,*,#423,.F.);
#576=ORIENTED_EDGE('',*,*,#420,.F.);
#577=ORIENTED_EDGE('',*,*,#403,.F.);
#578=ORIENTED_EDGE('',*,*,#346,.F.);
#579=ORIENTED_EDGE('',*,*,#419,.T.);
#580=ORIENTED_EDGE('',*,*,#424,.T.);
#581=ORIENTED_EDGE('',*,*,#385,.F.);
#582=ORIENTED_EDGE('',*,*,#424,.F.);
#583=ORIENTED_EDGE('',*,*,#422,.T.);
#584=ORIENTED_EDGE('',*,*,#415,.T.);
#585=ORIENTED_EDGE('',*,*,#358,.F.);
#586=ORIENTED_EDGE('',*,*,#417,.T.);
#587=ORIENTED_EDGE('',*,*,#356,.F.);
#588=ORIENTED_EDGE('',*,*,#425,.T.);
#589=ORIENTED_EDGE('',*,*,#384,.F.);
#590=ORIENTED_EDGE('',*,*,#425,.F.);
#591=ORIENTED_EDGE('',*,*,#355,.F.);
#592=ORIENTED_EDGE('',*,*,#421,.T.);
#593=ORIENTED_EDGE('',*,*,#423,.T.);
#594=ORIENTED_EDGE('',*,*,#405,.T.);
#595=ORIENTED_EDGE('',*,*,#378,.T.);
#596=ORIENTED_EDGE('',*,*,#393,.T.);
#597=ORIENTED_EDGE('',*,*,#362,.F.);
#598=ORIENTED_EDGE('',*,*,#389,.T.);
#599=ORIENTED_EDGE('',*,*,#397,.F.);
#600=ORIENTED_EDGE('',*,*,#390,.T.);
#601=ORIENTED_EDGE('',*,*,#376,.F.);
#602=ORIENTED_EDGE('',*,*,#352,.F.);
#603=ORIENTED_EDGE('',*,*,#426,.T.);
#604=ORIENTED_EDGE('',*,*,#382,.T.);
#605=ORIENTED_EDGE('',*,*,#426,.F.);
#606=ORIENTED_EDGE('',*,*,#398,.F.);
#607=ORIENTED_EDGE('',*,*,#427,.T.);
#608=ORIENTED_EDGE('',*,*,#383,.T.);
#609=ORIENTED_EDGE('',*,*,#427,.F.);
#610=PLANE('',#688);
#611=PLANE('',#689);
#612=PLANE('',#690);
#613=PLANE('',#691);
#614=PLANE('',#693);
#615=PLANE('',#701);
#616=PLANE('',#702);
#617=PLANE('',#707);
#618=PLANE('',#708);
#619=PLANE('',#709);
#620=PLANE('',#710);
#621=PLANE('',#711);
#622=PLANE('',#712);
#623=PLANE('',#714);
#624=PLANE('',#715);
#625=PLANE('',#716);
#626=PLANE('',#717);
#627=PLANE('',#718);
#628=PLANE('',#721);
#629=PLANE('',#724);
#630=PLANE('',#727);
#631=PLANE('',#730);
#632=PLANE('',#731);
#633=PLANE('',#732);
#634=PLANE('',#733);
#635=PLANE('',#734);
#636=PLANE('',#739);
#637=PLANE('',#740);
#638=ADVANCED_FACE('',(#52),#610,.F.);
#639=ADVANCED_FACE('',(#53),#611,.F.);
#640=ADVANCED_FACE('',(#54),#612,.T.);
#641=ADVANCED_FACE('',(#55,#23),#613,.T.);
#642=ADVANCED_FACE('',(#56,#24,#25,#26,#27),#614,.T.);
#643=ADVANCED_FACE('',(#57),#615,.T.);
#644=ADVANCED_FACE('',(#58,#28,#29,#30,#31),#616,.F.);
#645=ADVANCED_FACE('',(#59),#617,.F.);
#646=ADVANCED_FACE('',(#60),#618,.F.);
#647=ADVANCED_FACE('',(#61),#619,.F.);
#648=ADVANCED_FACE('',(#62),#620,.T.);
#649=ADVANCED_FACE('',(#63),#621,.T.);
#650=ADVANCED_FACE('',(#64,#32),#622,.T.);
#651=ADVANCED_FACE('',(#65),#623,.F.);
#652=ADVANCED_FACE('',(#66),#624,.F.);
#653=ADVANCED_FACE('',(#67),#625,.F.);
#654=ADVANCED_FACE('',(#68),#626,.F.);
#655=ADVANCED_FACE('',(#69),#627,.F.);
#656=ADVANCED_FACE('',(#70),#15,.F.);
#657=ADVANCED_FACE('',(#71),#628,.T.);
#658=ADVANCED_FACE('',(#72),#16,.F.);
#659=ADVANCED_FACE('',(#73),#629,.T.);
#660=ADVANCED_FACE('',(#74),#17,.F.);
#661=ADVANCED_FACE('',(#75),#630,.T.);
#662=ADVANCED_FACE('',(#76),#18,.F.);
#663=ADVANCED_FACE('',(#77),#631,.T.);
#664=ADVANCED_FACE('',(#78),#632,.F.);
#665=ADVANCED_FACE('',(#79),#633,.F.);
#666=ADVANCED_FACE('',(#80),#634,.F.);
#667=ADVANCED_FACE('',(#81),#635,.T.);
#668=ADVANCED_FACE('',(#82),#19,.F.);
#669=ADVANCED_FACE('',(#83),#20,.F.);
#670=ADVANCED_FACE('',(#84),#636,.F.);
#671=ADVANCED_FACE('',(#85),#637,.T.);
#672=ADVANCED_FACE('',(#86),#21,.F.);
#673=ADVANCED_FACE('',(#87),#22,.F.);
#674=CLOSED_SHELL('',(#638,#639,#640,#641,#642,#643,#644,#645,#646,#647,
#648,#649,#650,#651,#652,#653,#654,#655,#656,#657,#658,#659,#660,#661,#662,
#663,#664,#665,#666,#667,#668,#669,#670,#671,#672,#673));
#675=DERIVED_UNIT_ELEMENT(#677,1.);
#676=DERIVED_UNIT_ELEMENT(#1119,-3.);
#677=(
MASS_UNIT()
NAMED_UNIT(*)
SI_UNIT(.KILO.,.GRAM.)
);
#678=DERIVED_UNIT((#675,#676));
#679=MEASURE_REPRESENTATION_ITEM('density measure',
POSITIVE_RATIO_MEASURE(7850.),#678);
#680=PROPERTY_DEFINITION_REPRESENTATION(#685,#682);
#681=PROPERTY_DEFINITION_REPRESENTATION(#686,#683);
#682=REPRESENTATION('material name',(#684),#1116);
#683=REPRESENTATION('density',(#679),#1116);
#684=DESCRIPTIVE_REPRESENTATION_ITEM('Steel','Steel');
#685=PROPERTY_DEFINITION('material property','material name',#1126);
#686=PROPERTY_DEFINITION('material property','density of part',#1126);
#687=AXIS2_PLACEMENT_3D('',#927,#743,#744);
#688=AXIS2_PLACEMENT_3D('',#928,#745,#746);
#689=AXIS2_PLACEMENT_3D('',#943,#754,#755);
#690=AXIS2_PLACEMENT_3D('',#949,#759,#760);
#691=AXIS2_PLACEMENT_3D('',#955,#764,#765);
#692=AXIS2_PLACEMENT_3D('',#960,#768,#769);
#693=AXIS2_PLACEMENT_3D('',#961,#770,#771);
#694=AXIS2_PLACEMENT_3D('',#968,#774,#775);
#695=AXIS2_PLACEMENT_3D('',#970,#776,#777);
#696=AXIS2_PLACEMENT_3D('',#974,#779,#780);
#697=AXIS2_PLACEMENT_3D('',#989,#788,#789);
#698=AXIS2_PLACEMENT_3D('',#991,#790,#791);
#699=AXIS2_PLACEMENT_3D('',#993,#792,#793);
#700=AXIS2_PLACEMENT_3D('',#995,#794,#795);
#701=AXIS2_PLACEMENT_3D('',#996,#796,#797);
#702=AXIS2_PLACEMENT_3D('',#1000,#800,#801);
#703=AXIS2_PLACEMENT_3D('',#1021,#812,#813);
#704=AXIS2_PLACEMENT_3D('',#1023,#814,#815);
#705=AXIS2_PLACEMENT_3D('',#1025,#816,#817);
#706=AXIS2_PLACEMENT_3D('',#1027,#818,#819);
#707=AXIS2_PLACEMENT_3D('',#1028,#820,#821);
#708=AXIS2_PLACEMENT_3D('',#1035,#826,#827);
#709=AXIS2_PLACEMENT_3D('',#1042,#832,#833);
#710=AXIS2_PLACEMENT_3D('',#1045,#836,#837);
#711=AXIS2_PLACEMENT_3D('',#1046,#838,#839);
#712=AXIS2_PLACEMENT_3D('',#1048,#841,#842);
#713=AXIS2_PLACEMENT_3D('',#1051,#844,#845);
#714=AXIS2_PLACEMENT_3D('',#1052,#846,#847);
#715=AXIS2_PLACEMENT_3D('',#1057,#851,#852);
#716=AXIS2_PLACEMENT_3D('',#1062,#856,#857);
#717=AXIS2_PLACEMENT_3D('',#1064,#859,#860);
#718=AXIS2_PLACEMENT_3D('',#1066,#862,#863);
#719=AXIS2_PLACEMENT_3D('',#1067,#864,#865);
#720=AXIS2_PLACEMENT_3D('',#1070,#867,#868);
#721=AXIS2_PLACEMENT_3D('',#1071,#869,#870);
#722=AXIS2_PLACEMENT_3D('',#1072,#871,#872);
#723=AXIS2_PLACEMENT_3D('',#1075,#874,#875);
#724=AXIS2_PLACEMENT_3D('',#1076,#876,#877);
#725=AXIS2_PLACEMENT_3D('',#1077,#878,#879);
#726=AXIS2_PLACEMENT_3D('',#1080,#881,#882);
#727=AXIS2_PLACEMENT_3D('',#1081,#883,#884);
#728=AXIS2_PLACEMENT_3D('',#1082,#885,#886);
#729=AXIS2_PLACEMENT_3D('',#1085,#888,#889);
#730=AXIS2_PLACEMENT_3D('',#1086,#890,#891);
#731=AXIS2_PLACEMENT_3D('',#1087,#892,#893);
#732=AXIS2_PLACEMENT_3D('',#1091,#896,#897);
#733=AXIS2_PLACEMENT_3D('',#1097,#901,#902);
#734=AXIS2_PLACEMENT_3D('',#1101,#905,#906);
#735=AXIS2_PLACEMENT_3D('',#1102,#907,#908);
#736=AXIS2_PLACEMENT_3D('',#1103,#909,#910);
#737=AXIS2_PLACEMENT_3D('',#1104,#911,#912);
#738=AXIS2_PLACEMENT_3D('',#1106,#914,#915);
#739=AXIS2_PLACEMENT_3D('',#1108,#917,#918);
#740=AXIS2_PLACEMENT_3D('',#1109,#919,#920);
#741=AXIS2_PLACEMENT_3D('',#1110,#921,#922);
#742=AXIS2_PLACEMENT_3D('',#1112,#924,#925);
#743=DIRECTION('axis',(0.,0.,1.));
#744=DIRECTION('refdir',(1.,0.,0.));
#745=DIRECTION('center_axis',(-1.,0.,0.));
#746=DIRECTION('ref_axis',(0.,0.,1.));
#747=DIRECTION('',(0.,-1.,0.));
#748=DIRECTION('',(0.,0.,-1.));
#749=DIRECTION('',(0.,1.,0.));
#750=DIRECTION('',(0.,0.,1.));
#751=DIRECTION('',(0.,1.,0.));
#752=DIRECTION('',(0.,0.,1.));
#753=DIRECTION('',(0.,0.,1.));
#754=DIRECTION('center_axis',(0.,1.,0.));
#755=DIRECTION('ref_axis',(1.,0.,0.));
#756=DIRECTION('',(1.,0.,0.));
#757=DIRECTION('',(0.,0.,-1.));
#758=DIRECTION('',(1.,0.,0.));
#759=DIRECTION('center_axis',(0.,-1.,0.));
#760=DIRECTION('ref_axis',(1.,0.,0.));
#761=DIRECTION('',(1.,0.,0.));
#762=DIRECTION('',(0.,0.,-1.));
#763=DIRECTION('',(-1.,0.,0.));
#764=DIRECTION('center_axis',(0.,0.,1.));
#765=DIRECTION('ref_axis',(-1.,0.,0.));
#766=DIRECTION('',(-1.,0.,0.));
#767=DIRECTION('',(0.,-1.,0.));
#768=DIRECTION('center_axis',(0.,0.,-1.));
#769=DIRECTION('ref_axis',(-1.,0.,0.));
#770=DIRECTION('center_axis',(0.,0.,1.));
#771=DIRECTION('ref_axis',(1.,0.,0.));
#772=DIRECTION('',(-1.,0.,0.));
#773=DIRECTION('',(0.,-1.,0.));
#774=DIRECTION('center_axis',(0.,0.,-1.));
#775=DIRECTION('ref_axis',(-1.,0.,0.));
#776=DIRECTION('center_axis',(0.,0.,-1.));
#777=DIRECTION('ref_axis',(-1.,0.,0.));
#778=DIRECTION('',(-1.,0.,0.));
#779=DIRECTION('center_axis',(0.,0.,-1.));
#780=DIRECTION('ref_axis',(-1.,0.,0.));
#781=DIRECTION('',(0.,1.,0.));
#782=DIRECTION('',(-1.,0.,0.));
#783=DIRECTION('',(0.,-1.,0.));
#784=DIRECTION('',(1.,0.,0.));
#785=DIRECTION('',(1.,1.11022302462516E-16,0.));
#786=DIRECTION('',(1.,1.11022302462516E-16,0.));
#787=DIRECTION('',(0.,1.,0.));
#788=DIRECTION('center_axis',(0.,0.,-1.));
#789=DIRECTION('ref_axis',(-1.,0.,0.));
#790=DIRECTION('center_axis',(0.,0.,-1.));
#791=DIRECTION('ref_axis',(-1.,0.,0.));
#792=DIRECTION('center_axis',(0.,0.,-1.));
#793=DIRECTION('ref_axis',(-1.,0.,0.));
#794=DIRECTION('center_axis',(0.,0.,-1.));
#795=DIRECTION('ref_axis',(-1.,0.,0.));
#796=DIRECTION('center_axis',(0.,1.,0.));
#797=DIRECTION('ref_axis',(-1.,0.,0.));
#798=DIRECTION('',(1.,0.,0.));
#799=DIRECTION('',(0.,0.,1.));
#800=DIRECTION('center_axis',(0.,0.,1.));
#801=DIRECTION('ref_axis',(1.,0.,0.));
#802=DIRECTION('',(1.,0.,0.));
#803=DIRECTION('',(0.,-1.,0.));
#804=DIRECTION('',(-1.,0.,0.));
#805=DIRECTION('',(0.,-1.,0.));
#806=DIRECTION('',(-1.,0.,0.));
#807=DIRECTION('',(0.,1.,0.));
#808=DIRECTION('',(1.,0.,0.));
#809=DIRECTION('',(0.,1.,0.));
#810=DIRECTION('',(1.,0.,0.));
#811=DIRECTION('',(0.,1.,0.));
#812=DIRECTION('center_axis',(0.,0.,-1.));
#813=DIRECTION('ref_axis',(1.,0.,0.));
#814=DIRECTION('center_axis',(0.,0.,-1.));
#815=DIRECTION('ref_axis',(1.,0.,0.));
#816=DIRECTION('center_axis',(0.,0.,1.));
#817=DIRECTION('ref_axis',(-1.,0.,0.));
#818=DIRECTION('center_axis',(0.,0.,1.));
#819=DIRECTION('ref_axis',(-1.,0.,0.));
#820=DIRECTION('center_axis',(-1.,0.,0.));
#821=DIRECTION('ref_axis',(0.,0.,1.));
#822=DIRECTION('',(0.,0.,-1.));
#823=DIRECTION('',(0.,0.,-1.));
#824=DIRECTION('',(0.,1.,0.));
#825=DIRECTION('',(0.,0.,1.));
#826=DIRECTION('center_axis',(1.,0.,0.));
#827=DIRECTION('ref_axis',(0.,0.,-1.));
#828=DIRECTION('',(0.,0.,-1.));
#829=DIRECTION('',(0.,-1.,0.));
#830=DIRECTION('',(0.,0.,1.));
#831=DIRECTION('',(0.,0.,1.));
#832=DIRECTION('center_axis',(1.,0.,0.));
#833=DIRECTION('ref_axis',(0.,0.,-1.));
#834=DIRECTION('',(0.,0.,-1.));
#835=DIRECTION('',(0.,-1.,0.));
#836=DIRECTION('center_axis',(0.,0.,1.));
#837=DIRECTION('ref_axis',(1.,0.,0.));
#838=DIRECTION('center_axis',(-1.11022302462516E-16,1.,0.));
#839=DIRECTION('ref_axis',(-1.,-1.11022302462516E-16,0.));
#840=DIRECTION('',(-1.,-1.11022302462516E-16,0.));
#841=DIRECTION('center_axis',(0.,0.,1.));
#842=DIRECTION('ref_axis',(-1.,0.,0.));
#843=DIRECTION('',(1.,0.,0.));
#844=DIRECTION('center_axis',(0.,0.,-1.));
#845=DIRECTION('ref_axis',(-1.,0.,0.));
#846=DIRECTION('center_axis',(0.,-1.,0.));
#847=DIRECTION('ref_axis',(1.,0.,0.));
#848=DIRECTION('',(0.,0.,1.));
#849=DIRECTION('',(0.,0.,-1.));
#850=DIRECTION('',(1.,0.,0.));
#851=DIRECTION('center_axis',(0.,-1.,0.));
#852=DIRECTION('ref_axis',(1.,0.,0.));
#853=DIRECTION('',(0.,0.,-1.));
#854=DIRECTION('',(1.,0.,0.));
#855=DIRECTION('',(0.,0.,1.));
#856=DIRECTION('center_axis',(1.,0.,0.));
#857=DIRECTION('ref_axis',(0.,0.,-1.));
#858=DIRECTION('',(0.,0.,-1.));
#859=DIRECTION('center_axis',(-1.,0.,0.));
#860=DIRECTION('ref_axis',(0.,0.,1.));
#861=DIRECTION('',(0.,0.,1.));
#862=DIRECTION('center_axis',(0.,1.,0.));
#863=DIRECTION('ref_axis',(-1.,0.,0.));
#864=DIRECTION('center_axis',(0.,0.,-1.));
#865=DIRECTION('ref_axis',(-1.,0.,0.));
#866=DIRECTION('',(0.,0.,-1.));
#867=DIRECTION('center_axis',(0.,0.,-1.));
#868=DIRECTION('ref_axis',(-1.,0.,0.));
#869=DIRECTION('center_axis',(0.,0.,1.));
#870=DIRECTION('ref_axis',(-1.,0.,0.));
#871=DIRECTION('center_axis',(0.,0.,-1.));
#872=DIRECTION('ref_axis',(-1.,0.,0.));
#873=DIRECTION('',(0.,0.,-1.));
#874=DIRECTION('center_axis',(0.,0.,-1.));
#875=DIRECTION('ref_axis',(-1.,0.,0.));
#876=DIRECTION('center_axis',(0.,0.,1.));
#877=DIRECTION('ref_axis',(-1.,0.,0.));
#878=DIRECTION('center_axis',(0.,0.,-1.));
#879=DIRECTION('ref_axis',(-1.,0.,0.));
#880=DIRECTION('',(0.,0.,-1.));
#881=DIRECTION('center_axis',(0.,0.,-1.));
#882=DIRECTION('ref_axis',(-1.,0.,0.));
#883=DIRECTION('center_axis',(0.,0.,1.));
#884=DIRECTION('ref_axis',(-1.,0.,0.));
#885=DIRECTION('center_axis',(0.,0.,-1.));
#886=DIRECTION('ref_axis',(-1.,0.,0.));
#887=DIRECTION('',(0.,0.,-1.));
#888=DIRECTION('center_axis',(0.,0.,-1.));
#889=DIRECTION('ref_axis',(-1.,0.,0.));
#890=DIRECTION('center_axis',(0.,0.,1.));
#891=DIRECTION('ref_axis',(-1.,0.,0.));
#892=DIRECTION('center_axis',(-1.,0.,0.));
#893=DIRECTION('ref_axis',(0.,1.,0.));
#894=DIRECTION('',(0.,0.,1.));
#895=DIRECTION('',(0.,1.,0.));
#896=DIRECTION('center_axis',(0.,-1.,0.));
#897=DIRECTION('ref_axis',(-1.,0.,0.));
#898=DIRECTION('',(0.,0.,1.));
#899=DIRECTION('',(-1.,0.,0.));
#900=DIRECTION('',(0.,0.,-1.));
#901=DIRECTION('center_axis',(1.,0.,0.));
#902=DIRECTION('ref_axis',(0.,-1.,0.));
#903=DIRECTION('',(0.,-1.,0.));
#904=DIRECTION('',(0.,0.,-1.));
#905=DIRECTION('center_axis',(0.,0.,1.));
#906=DIRECTION('ref_axis',(-1.,0.,0.));
#907=DIRECTION('center_axis',(0.,0.,1.));
#908=DIRECTION('ref_axis',(-1.,0.,0.));
#909=DIRECTION('center_axis',(0.,0.,1.));
#910=DIRECTION('ref_axis',(-1.,0.,0.));
#911=DIRECTION('center_axis',(0.,0.,-1.));
#912=DIRECTION('ref_axis',(-1.,0.,0.));
#913=DIRECTION('',(0.,0.,-1.));
#914=DIRECTION('center_axis',(0.,0.,-1.));
#915=DIRECTION('ref_axis',(-1.,0.,0.));
#916=DIRECTION('',(0.,0.,-1.));
#917=DIRECTION('center_axis',(0.,1.,0.));
#918=DIRECTION('ref_axis',(-1.,0.,0.));
#919=DIRECTION('center_axis',(0.,-1.,0.));
#920=DIRECTION('ref_axis',(1.,0.,0.));
#921=DIRECTION('center_axis',(0.,0.,1.));
#922=DIRECTION('ref_axis',(1.,0.,0.));
#923=DIRECTION('',(0.,0.,-1.));
#924=DIRECTION('center_axis',(0.,0.,1.));
#925=DIRECTION('ref_axis',(1.,0.,0.));
#926=DIRECTION('',(0.,0.,-1.));
#927=CARTESIAN_POINT('',(0.,0.,0.));
#928=CARTESIAN_POINT('Origin',(17.0000006407499,28.0508811589081,0.));
#929=CARTESIAN_POINT('',(17.0000006407499,28.0508811589081,0.));
#930=CARTESIAN_POINT('',(17.0000006407499,15.0508811589081,0.));
#931=CARTESIAN_POINT('',(17.0000006407499,14.3008811589081,0.));
#932=CARTESIAN_POINT('',(17.0000006407499,28.0508811589081,13.5));
#933=CARTESIAN_POINT('',(17.0000006407499,28.0508811589081,0.));
#934=CARTESIAN_POINT('',(17.0000006407499,17.0000002533197,13.5));
#935=CARTESIAN_POINT('',(17.0000006407499,25.288160932511,13.5));
#936=CARTESIAN_POINT('',(17.0000006407499,17.0000002533197,12.));
#937=CARTESIAN_POINT('',(17.0000006407499,17.0000002533197,6.));
#938=CARTESIAN_POINT('',(17.0000006407499,15.0508811589081,12.));
#939=CARTESIAN_POINT('',(17.0000006407499,14.3008811589081,12.));
#940=CARTESIAN_POINT('',(17.0000006407499,15.0508811589081,6.));
#941=CARTESIAN_POINT('',(17.0000006407499,15.0508811589081,6.));
#942=CARTESIAN_POINT('',(17.0000006407499,15.0508811589081,0.));
#943=CARTESIAN_POINT('Origin',(-6.99999935925007,15.0508811589081,12.));
#944=CARTESIAN_POINT('',(-0.999999359250068,15.0508811589081,12.));
#945=CARTESIAN_POINT('',(0.500000640749931,15.0508811589081,12.));
#946=CARTESIAN_POINT('',(-0.999999359250068,15.0508811589081,6.));
#947=CARTESIAN_POINT('',(-0.999999359250068,15.0508811589081,6.));
#948=CARTESIAN_POINT('',(13.0000006407499,15.0508811589081,6.));
#949=CARTESIAN_POINT('Origin',(-13.0000001937151,17.0000002533197,12.));
#950=CARTESIAN_POINT('',(-1.00000019371509,17.0000002533197,13.5));
#951=CARTESIAN_POINT('',(-13.0000001937151,17.0000002533197,13.5));
#952=CARTESIAN_POINT('',(-1.00000019371509,17.0000002533197,12.));
#953=CARTESIAN_POINT('',(-0.999999359250068,17.0000002533197,6.));
#954=CARTESIAN_POINT('',(-2.49999977648258,17.0000002533197,12.));
#955=CARTESIAN_POINT('Origin',(5.50000022351742,22.5254407061139,13.5));
#956=CARTESIAN_POINT('',(-0.999999359250068,28.0508811589081,13.5));
#957=CARTESIAN_POINT('',(24.0000006407499,28.0508811589081,13.5));
#958=CARTESIAN_POINT('',(-0.999999359250068,18.788160932511,13.5));
#959=CARTESIAN_POINT('',(5.75000064074993,22.0508811589081,13.5));
#960=CARTESIAN_POINT('Origin',(8.00000064074993,22.0508811589081,13.5));
#961=CARTESIAN_POINT('Origin',(8.00000064074993,0.550881158908076,12.));
#962=CARTESIAN_POINT('',(33.0000006407499,15.0508811589081,12.));
#963=CARTESIAN_POINT('',(19.0000006407499,15.0508811589081,12.));
#964=CARTESIAN_POINT('',(16.0000006407499,15.0508811589081,12.));
#965=CARTESIAN_POINT('',(19.0000006407499,12.8008811589081,12.));
#966=CARTESIAN_POINT('',(19.0000006407499,7.80088115890808,12.));
#967=CARTESIAN_POINT('',(27.7500006407499,4.05088115890808,12.));
#968=CARTESIAN_POINT('Origin',(19.0000006407499,4.05088115890808,12.));
#969=CARTESIAN_POINT('',(10.2500006407499,4.05088115890807,12.));
#970=CARTESIAN_POINT('Origin',(19.0000006407499,4.05088115890808,12.));
#971=CARTESIAN_POINT('',(1.75000064074993,4.05088115890807,12.));
#972=CARTESIAN_POINT('',(9.12500064074993,4.05088115890807,12.));
#973=CARTESIAN_POINT('',(-6.99999935925007,12.8008811589081,12.));
#974=CARTESIAN_POINT('Origin',(-6.99999935925007,4.05088115890807,12.));
#975=CARTESIAN_POINT('',(-6.99999935925007,15.0508811589081,12.));
#976=CARTESIAN_POINT('',(-6.99999935925007,6.67588115890807,12.));
#977=CARTESIAN_POINT('',(-21.9999993592501,15.0508811589081,12.));
#978=CARTESIAN_POINT('',(-16.9999993592501,15.0508811589081,12.));
#979=CARTESIAN_POINT('',(-21.9999993592501,-13.9491188410919,12.));
#980=CARTESIAN_POINT('',(-21.9999993592501,7.80088115890807,12.));
#981=CARTESIAN_POINT('',(-0.999999359250069,-13.9491188410919,12.));
#982=CARTESIAN_POINT('',(-26.9999993592501,-13.9491188410919,12.));
#983=CARTESIAN_POINT('',(17.0000006407499,-13.9491188410919,12.));
#984=CARTESIAN_POINT('',(13.0000006407499,-13.9491188410919,12.));
#985=CARTESIAN_POINT('',(33.0000006407499,-13.9491188410919,12.));
#986=CARTESIAN_POINT('',(13.0000006407499,-13.9491188410919,12.));
#987=CARTESIAN_POINT('',(33.0000006407499,-6.69911884109192,12.));
#988=CARTESIAN_POINT('',(-13.9999993592501,-4.94911884109192,12.));
#989=CARTESIAN_POINT('Origin',(-14.9999993592501,-4.94911884109192,12.));
#990=CARTESIAN_POINT('',(-13.9999993592501,13.0508811589081,12.));
#991=CARTESIAN_POINT('Origin',(-14.9999993592501,13.0508811589081,12.));
#992=CARTESIAN_POINT('',(29.0000006407499,-4.94911884109192,12.));
#993=CARTESIAN_POINT('Origin',(28.0000006407499,-4.94911884109192,12.));
#994=CARTESIAN_POINT('',(29.0000006407499,13.0508811589081,12.));
#995=CARTESIAN_POINT('Origin',(28.0000006407499,13.0508811589081,12.));
#996=CARTESIAN_POINT('Origin',(33.0000006407499,28.0508811589081,0.));
#997=CARTESIAN_POINT('',(-0.999999359250068,28.0508811589081,0.));
#998=CARTESIAN_POINT('',(18.0000006407499,28.0508811589081,0.));
#999=CARTESIAN_POINT('',(-0.999999359250068,28.0508811589081,0.));
#1000=CARTESIAN_POINT('Origin',(8.00000064074993,0.550881158908076,0.));
#1001=CARTESIAN_POINT('',(33.0000006407499,15.0508811589081,0.));
#1002=CARTESIAN_POINT('',(33.0000006407499,15.0508811589081,0.));
#1003=CARTESIAN_POINT('',(33.0000006407499,-13.9491188410919,0.));
#1004=CARTESIAN_POINT('',(33.0000006407499,-6.69911884109192,0.));
#1005=CARTESIAN_POINT('',(17.0000006407499,-13.9491188410919,0.));
#1006=CARTESIAN_POINT('',(13.0000006407499,-13.9491188410919,0.));
#1007=CARTESIAN_POINT('',(17.0000006407499,-26.9491188410919,0.));
#1008=CARTESIAN_POINT('',(17.0000006407499,-6.69911884109192,0.));
#1009=CARTESIAN_POINT('',(-0.999999359250068,-26.9491188410919,0.));
#1010=CARTESIAN_POINT('',(33.0000006407499,-26.9491188410919,0.));
#1011=CARTESIAN_POINT('',(-0.999999359250068,-13.9491188410919,0.));
#1012=CARTESIAN_POINT('',(-0.999999359250068,-13.1991188410919,0.));
#1013=CARTESIAN_POINT('',(-21.9999993592501,-13.9491188410919,0.));
#1014=CARTESIAN_POINT('',(-26.9999993592501,-13.9491188410919,0.));
#1015=CARTESIAN_POINT('',(-21.9999993592501,15.0508811589081,0.));
#1016=CARTESIAN_POINT('',(-21.9999993592501,7.80088115890807,0.));
#1017=CARTESIAN_POINT('',(-0.999999359250068,15.0508811589081,0.));
#1018=CARTESIAN_POINT('',(-2.49999935925007,15.0508811589081,0.));
#1019=CARTESIAN_POINT('',(-0.999999359250068,7.80088115890807,0.));
#1020=CARTESIAN_POINT('',(5.75000064074993,22.0508811589081,0.));
#1021=CARTESIAN_POINT('Origin',(8.00000064074993,22.0508811589081,0.));
#1022=CARTESIAN_POINT('',(5.75000064074993,-20.9491188410919,0.));
#1023=CARTESIAN_POINT('Origin',(8.00000064074993,-20.9491188410919,0.));
#1024=CARTESIAN_POINT('',(27.7500006407499,4.05088115890808,0.));
#1025=CARTESIAN_POINT('Origin',(19.0000006407499,4.05088115890808,0.));
#1026=CARTESIAN_POINT('',(1.75000064074993,4.05088115890807,0.));
#1027=CARTESIAN_POINT('Origin',(-6.99999935925007,4.05088115890807,0.));
#1028=CARTESIAN_POINT('Origin',(17.0000006407499,-13.9491188410919,0.));
#1029=CARTESIAN_POINT('',(17.0000006407499,-13.9491188410919,0.));
#1030=CARTESIAN_POINT('',(17.0000006407499,-13.9491188410919,13.5));
#1031=CARTESIAN_POINT('',(17.0000006407499,-13.9491188410919,6.));
#1032=CARTESIAN_POINT('',(17.0000006407499,-26.9491188410919,13.5));
#1033=CARTESIAN_POINT('',(17.0000006407499,-17.1991188410919,13.5));
#1034=CARTESIAN_POINT('',(17.0000006407499,-26.9491188410919,0.));
#1035=CARTESIAN_POINT('Origin',(-0.999999359250068,-26.9491188410919,0.));
#1036=CARTESIAN_POINT('',(-0.999999359250069,-26.9491188410919,13.5));
#1037=CARTESIAN_POINT('',(-0.999999359250068,-26.9491188410919,0.));
#1038=CARTESIAN_POINT('',(-0.999999359250069,-13.9491188410919,13.5));
#1039=CARTESIAN_POINT('',(-0.999999359250068,-23.6991188410919,13.5));
#1040=CARTESIAN_POINT('',(-0.999999359250068,-13.9491188410919,6.));
#1041=CARTESIAN_POINT('',(-0.999999359250069,-13.9491188410919,12.));
#1042=CARTESIAN_POINT('Origin',(-0.999999359250068,15.0508811589081,0.));
#1043=CARTESIAN_POINT('',(-0.999999359250068,15.0508811589081,0.));
#1044=CARTESIAN_POINT('',(-0.999999359250068,7.80088115890807,12.));
#1045=CARTESIAN_POINT('Origin',(8.00000064074993,0.550881158908076,12.));
#1046=CARTESIAN_POINT('Origin',(18.0000006407499,-13.9491188410919,12.));
#1047=CARTESIAN_POINT('',(-1.99999935925007,-13.9491188410919,13.5));
#1048=CARTESIAN_POINT('Origin',(8.00000064074993,-20.4491188410919,13.5));
#1049=CARTESIAN_POINT('',(-1.99999935925007,-26.9491188410919,13.5));
#1050=CARTESIAN_POINT('',(5.75000064074993,-20.9491188410919,13.5));
#1051=CARTESIAN_POINT('Origin',(8.00000064074993,-20.9491188410919,13.5));
#1052=CARTESIAN_POINT('Origin',(-16.9999993592501,15.0508811589081,0.));
#1053=CARTESIAN_POINT('',(-21.9999993592501,15.0508811589081,0.));
#1054=CARTESIAN_POINT('',(-6.99999935925007,15.0508811589081,6.));
#1055=CARTESIAN_POINT('',(-6.99999935925007,15.0508811589081,6.));
#1056=CARTESIAN_POINT('',(13.0000006407499,15.0508811589081,6.));
#1057=CARTESIAN_POINT('Origin',(18.0000006407499,15.0508811589081,0.));
#1058=CARTESIAN_POINT('',(33.0000006407499,15.0508811589081,0.));
#1059=CARTESIAN_POINT('',(19.0000006407499,15.0508811589081,6.));
#1060=CARTESIAN_POINT('',(13.0000006407499,15.0508811589081,6.));
#1061=CARTESIAN_POINT('',(19.0000006407499,15.0508811589081,6.));
#1062=CARTESIAN_POINT('Origin',(-21.9999993592501,15.0508811589081,0.));
#1063=CARTESIAN_POINT('',(-21.9999993592501,-13.9491188410919,0.));
#1064=CARTESIAN_POINT('Origin',(33.0000006407499,-13.9491188410919,0.));
#1065=CARTESIAN_POINT('',(33.0000006407499,-13.9491188410919,0.));
#1066=CARTESIAN_POINT('Origin',(33.0000006407499,-13.9491188410919,0.));
#1067=CARTESIAN_POINT('Origin',(-14.9999993592501,-4.94911884109192,12.));
#1068=CARTESIAN_POINT('',(-13.9999993592501,-4.94911884109192,7.));
#1069=CARTESIAN_POINT('',(-13.9999993592501,-4.94911884109192,12.));
#1070=CARTESIAN_POINT('Origin',(-14.9999993592501,-4.94911884109192,7.));
#1071=CARTESIAN_POINT('Origin',(-14.9999993592501,-4.94911884109192,7.));
#1072=CARTESIAN_POINT('Origin',(-14.9999993592501,13.0508811589081,12.));
#1073=CARTESIAN_POINT('',(-13.9999993592501,13.0508811589081,7.));
#1074=CARTESIAN_POINT('',(-13.9999993592501,13.0508811589081,12.));
#1075=CARTESIAN_POINT('Origin',(-14.9999993592501,13.0508811589081,7.));
#1076=CARTESIAN_POINT('Origin',(-14.9999993592501,13.0508811589081,7.));
#1077=CARTESIAN_POINT('Origin',(28.0000006407499,-4.94911884109192,12.));
#1078=CARTESIAN_POINT('',(29.0000006407499,-4.94911884109192,7.));
#1079=CARTESIAN_POINT('',(29.0000006407499,-4.94911884109192,12.));
#1080=CARTESIAN_POINT('Origin',(28.0000006407499,-4.94911884109192,7.));
#1081=CARTESIAN_POINT('Origin',(28.0000006407499,-4.94911884109192,7.));
#1082=CARTESIAN_POINT('Origin',(28.0000006407499,13.0508811589081,12.));
#1083=CARTESIAN_POINT('',(29.0000006407499,13.0508811589081,7.));
#1084=CARTESIAN_POINT('',(29.0000006407499,13.0508811589081,12.));
#1085=CARTESIAN_POINT('Origin',(28.0000006407499,13.0508811589081,7.));
#1086=CARTESIAN_POINT('Origin',(28.0000006407499,13.0508811589081,7.));
#1087=CARTESIAN_POINT('Origin',(-6.99999935925007,12.8008811589081,12.));
#1088=CARTESIAN_POINT('',(-6.99999935925007,12.8008811589081,6.));
#1089=CARTESIAN_POINT('',(-6.99999935925007,12.8008811589081,12.));
#1090=CARTESIAN_POINT('',(-6.99999935925007,15.0508811589081,6.));
#1091=CARTESIAN_POINT('Origin',(10.2500006407499,4.05088115890807,12.));
#1092=CARTESIAN_POINT('',(10.2500006407499,4.05088115890807,6.));
#1093=CARTESIAN_POINT('',(10.2500006407499,4.05088115890807,12.));
#1094=CARTESIAN_POINT('',(1.75000064074993,4.05088115890807,6.));
#1095=CARTESIAN_POINT('',(-6.99999935925007,4.05088115890807,6.));
#1096=CARTESIAN_POINT('',(1.75000064074993,4.05088115890807,12.));
#1097=CARTESIAN_POINT('Origin',(19.0000006407499,15.0508811589081,12.));
#1098=CARTESIAN_POINT('',(19.0000006407499,12.8008811589081,6.));
#1099=CARTESIAN_POINT('',(19.0000006407499,4.05088115890807,6.));
#1100=CARTESIAN_POINT('',(19.0000006407499,12.8008811589081,12.));
#1101=CARTESIAN_POINT('Origin',(8.00000064074993,0.550881158908076,6.));
#1102=CARTESIAN_POINT('Origin',(-6.99999935925007,4.05088115890807,6.));
#1103=CARTESIAN_POINT('Origin',(19.0000006407499,4.05088115890808,6.));
#1104=CARTESIAN_POINT('Origin',(-6.99999935925007,4.05088115890807,12.));
#1105=CARTESIAN_POINT('',(1.75000064074993,4.05088115890807,12.));
#1106=CARTESIAN_POINT('Origin',(19.0000006407499,4.05088115890808,12.));
#1107=CARTESIAN_POINT('',(27.7500006407499,4.05088115890808,12.));
#1108=CARTESIAN_POINT('Origin',(-1.99999935925007,-13.9491188410919,0.));
#1109=CARTESIAN_POINT('Origin',(-16.9999993592501,-26.9491188410919,0.));
#1110=CARTESIAN_POINT('Origin',(8.00000064074993,22.0508811589081,0.));
#1111=CARTESIAN_POINT('',(5.75000064074993,22.0508811589081,0.));
#1112=CARTESIAN_POINT('Origin',(8.00000064074993,-20.9491188410919,0.));
#1113=CARTESIAN_POINT('',(5.75000064074993,-20.9491188410919,0.));
#1114=UNCERTAINTY_MEASURE_WITH_UNIT(LENGTH_MEASURE(0.01),#1118,
'DISTANCE_ACCURACY_VALUE',
'Maximum model space distance between geometric entities at asserted c
onnectivities');
#1115=UNCERTAINTY_MEASURE_WITH_UNIT(LENGTH_MEASURE(0.01),#1118,
'DISTANCE_ACCURACY_VALUE',
'Maximum model space distance between geometric entities at asserted c
onnectivities');
#1116=(
GEOMETRIC_REPRESENTATION_CONTEXT(3)
GLOBAL_UNCERTAINTY_ASSIGNED_CONTEXT((#1114))
GLOBAL_UNIT_ASSIGNED_CONTEXT((#1118,#1120,#1121))
REPRESENTATION_CONTEXT('','3D')
);
#1117=(
GEOMETRIC_REPRESENTATION_CONTEXT(3)
GLOBAL_UNCERTAINTY_ASSIGNED_CONTEXT((#1115))
GLOBAL_UNIT_ASSIGNED_CONTEXT((#1118,#1120,#1121))
REPRESENTATION_CONTEXT('','3D')
);
#1118=(
LENGTH_UNIT()
NAMED_UNIT(*)
SI_UNIT(.MILLI.,.METRE.)
);
#1119=(
LENGTH_UNIT()
NAMED_UNIT(*)
SI_UNIT($,.METRE.)
);
#1120=(
NAMED_UNIT(*)
PLANE_ANGLE_UNIT()
SI_UNIT($,.RADIAN.)
);
#1121=(
NAMED_UNIT(*)
SI_UNIT($,.STERADIAN.)
SOLID_ANGLE_UNIT()
);
#1122=SHAPE_DEFINITION_REPRESENTATION(#1123,#1124);
#1123=PRODUCT_DEFINITION_SHAPE('',$,#1126);
#1124=SHAPE_REPRESENTATION('',(#687),#1116);
#1125=PRODUCT_DEFINITION_CONTEXT('part definition',#1130,'design');
#1126=PRODUCT_DEFINITION('ultrasonic sensor holder',
'ultrasonic sensor holder v8',#1127,#1125);
#1127=PRODUCT_DEFINITION_FORMATION('',$,#1132);
#1128=PRODUCT_RELATED_PRODUCT_CATEGORY('ultrasonic sensor holder v8',
'ultrasonic sensor holder v8',(#1132));
#1129=APPLICATION_PROTOCOL_DEFINITION('international standard',
'automotive_design',2009,#1130);
#1130=APPLICATION_CONTEXT(
'Core Data for Automotive Mechanical Design Process');
#1131=PRODUCT_CONTEXT('part definition',#1130,'mechanical');
#1132=PRODUCT('ultrasonic sensor holder','ultrasonic sensor holder v8',
$,(#1131));
#1133=PRESENTATION_STYLE_ASSIGNMENT((#1134));
#1134=SURFACE_STYLE_USAGE(.BOTH.,#1135);
#1135=SURFACE_SIDE_STYLE('',(#1136));
#1136=SURFACE_STYLE_FILL_AREA(#1137);
#1137=FILL_AREA_STYLE('Steel - Satin',(#1138));
#1138=FILL_AREA_STYLE_COLOUR('Steel - Satin',#1139);
#1139=COLOUR_RGB('Steel - Satin',0.627450980392157,0.627450980392157,0.627450980392157);
ENDSEC;
END-ISO-10303-21;
